<?xml version="1.0" encoding="iso-8859-1"?>
<!-- Generator: Adobe Illustrator 19.0.0, SVG Export Plug-In . SVG Version: 6.00 Build 0)  -->
<svg version="1.1" id="Layer_1" xmlns="http://www.w3.org/2000/svg" xmlns:xlink="http://www.w3.org/1999/xlink" x="0px" y="0px"
	 viewBox="0 0 512 512" style="enable-background:new 0 0 512 512;" xml:space="preserve">
<circle style="fill:#3FC8F2;" cx="420.133" cy="115.487" r="27.731"/>
<circle style="fill:#894BA2;" cx="268.738" cy="211.788" r="27.731"/>
<circle style="fill:#FFDB56;" cx="250.756" cy="404.379" r="27.731"/>
<circle style="fill:#F77935;" cx="372.578" cy="308.078" r="27.731"/>
<path d="M503.146,495.121H17.59v-80.294h109.714c4.661,0,8.44-3.779,8.44-8.44s-3.779-8.44-8.44-8.44H17.59V318.53h53.451
	c4.661,0,8.44-3.779,8.44-8.44s-3.779-8.44-8.44-8.44H17.59v-79.417h113.113c4.661,0,8.44-3.779,8.44-8.44s-3.779-8.44-8.44-8.44
	H17.59v-79.417h64.703c4.661,0,8.44-3.779,8.44-8.44s-3.779-8.44-8.44-8.44H17.59V8.44c0-4.661-3.779-8.44-8.44-8.44
	s-8.44,3.779-8.44,8.44v106.87c-0.188,0.699-0.297,1.43-0.297,2.188c0,0.758,0.109,1.489,0.297,2.188v91.921
	c-0.188,0.699-0.297,1.43-0.297,2.188c0,0.757,0.109,1.489,0.297,2.188v91.921c-0.188,0.699-0.297,1.43-0.297,2.188
	c0,0.758,0.109,1.489,0.297,2.188v91.921c-0.188,0.699-0.297,1.43-0.297,2.188c0,0.758,0.109,1.489,0.297,2.188v94.987
	c0,4.661,3.779,8.44,8.44,8.44h493.996c4.661,0,8.44-3.779,8.44-8.44S507.807,495.121,503.146,495.121z"/>
<path d="M176.817,222.234h33.758h23.533c4.494,14.866,18.314,25.724,34.626,25.724c19.945,0,36.172-16.226,36.172-36.172
	s-16.227-36.171-36.172-36.171c-17.749,0-32.543,12.854-35.587,29.74h-22.572h-33.758h-12.356c-4.661,0-8.44,3.779-8.44,8.44
	s3.779,8.44,8.44,8.44H176.817z M268.734,192.494c10.638,0,19.293,8.654,19.293,19.292c0,10.638-8.654,19.293-19.293,19.293
	c-10.637,0-19.292-8.654-19.292-19.293C249.442,201.147,258.096,192.494,268.734,192.494z"/>
<path d="M116.052,125.936h269.455c4.494,14.866,18.314,25.724,34.627,25.724c19.945,0,36.172-16.226,36.172-36.172
	s-16.226-36.172-36.172-36.172c-9.662,0-18.746,3.763-25.576,10.594c-5.29,5.29-8.73,11.932-10.017,19.147H116.052
	c-4.661,0-8.44,3.779-8.44,8.44C107.612,122.159,111.391,125.936,116.052,125.936z M406.492,101.847
	c3.643-3.644,8.488-5.65,13.641-5.65c10.638,0,19.293,8.654,19.293,19.293s-8.654,19.293-19.293,19.293
	c-10.637,0-19.292-8.654-19.292-19.293C400.841,110.335,402.848,105.491,406.492,101.847z"/>
<path d="M215.172,397.948h-54.109c-4.661,0-8.44,3.779-8.44,8.44s3.779,8.44,8.44,8.44h55.069
	c4.494,14.866,18.314,25.724,34.626,25.724c19.945,0,36.172-16.227,36.172-36.172c0-19.945-16.226-36.172-36.172-36.172
	C233.01,368.208,218.216,381.062,215.172,397.948z M270.05,404.379c0,10.638-8.654,19.293-19.293,19.293
	c-10.637,0-19.292-8.654-19.292-19.293c0-10.638,8.654-19.293,19.292-19.293C261.396,385.087,270.05,393.742,270.05,404.379z"/>
<path d="M372.575,344.254c19.945,0,36.172-16.227,36.172-36.172c0-19.945-16.226-36.172-36.172-36.172
	c-17.749,0-32.543,12.854-35.587,29.74H104.799c-4.661,0-8.44,3.779-8.44,8.44s3.779,8.44,8.44,8.44h233.149
	C342.444,333.396,356.263,344.254,372.575,344.254z M372.575,288.791c10.638,0,19.293,8.655,19.293,19.293
	s-8.654,19.293-19.293,19.293c-10.637,0-19.292-8.655-19.292-19.293C353.283,297.445,361.938,288.791,372.575,288.791z"/>
<g>
</g>
<g>
</g>
<g>
</g>
<g>
</g>
<g>
</g>
<g>
</g>
<g>
</g>
<g>
</g>
<g>
</g>
<g>
</g>
<g>
</g>
<g>
</g>
<g>
</g>
<g>
</g>
<g>
</g>
</svg>
