<?xml version="1.0" encoding="utf-8"?>
<!-- Generator: Adobe Illustrator 22.1.0, SVG Export Plug-In . SVG Version: 6.00 Build 0)  -->
<svg version="1.1" id="Layer_1" xmlns="http://www.w3.org/2000/svg" xmlns:xlink="http://www.w3.org/1999/xlink" x="0px" y="0px"
	 viewBox="0 0 1920 1280" style="enable-background:new 0 0 1920 1280;" xml:space="preserve">
<style type="text/css">
	.st0{fill:#C7EDE6;}
	.st1{fill:#FFFFFF;}
	.st2{fill:#FDFCEF;}
	.st3{fill:#472B29;}
	.st4{fill:#A183E2;}
	.st5{fill:#CAB4EF;}
	.st6{fill:#BE87EF;}
	.st7{fill:#9762E2;}
	.st8{fill:#B2E7F1;}
	.st9{fill:#8BB6EF;}
	.st10{fill:#A7ADF1;}
	.st11{fill:#8388EF;}
	.st12{fill:#7844C1;}
	.st13{fill:#A171E3;}
</style>
<g>
	<g>
		<path class="st0" d="M1207.7,691.3c8.7-16.5,13.6-35.2,13.6-55.1c0-50.6-31.8-93.6-76.4-110.6c0-0.1,0-0.1,0-0.2
			c0-88.6-71.8-160.4-160.4-160.4c-74.7,0-137.4,51.2-155.2,120.4c-11.3-3.7-23.3-5.8-35.8-5.8c-58.8,0-107.1,44.3-113.7,101.2
			c-39.8,8.4-69.6,43.7-69.6,85.9c0,48.5,39.3,87.8,87.8,87.8c1.4,0,2.7-0.1,4-0.2c0,1.3-0.2,2.6-0.2,4
			c0,86.5,70.1,156.6,156.6,156.6c49.2,0,93-22.7,121.7-58.2c16.6,17,39.8,27.6,65.4,27.6c35.5,0,66.3-20.2,81.5-49.8
			c8,2.6,16.6,4,25.5,4c46.4,0,84-37.6,84-84C1236.6,729.3,1225.3,706.7,1207.7,691.3z"/>
		<path class="st1" d="M689.7,594.2H614c-2.1,0-3.8-1.7-3.8-3.8s1.7-3.8,3.8-3.8h75.7c2.1,0,3.8,1.7,3.8,3.8
			S691.8,594.2,689.7,594.2z"/>
		<path class="st1" d="M713.3,594.2h-7.6c-2.1,0-3.8-1.7-3.8-3.8s1.7-3.8,3.8-3.8h7.6c2.1,0,3.8,1.7,3.8,3.8
			S715.4,594.2,713.3,594.2z"/>
		<path class="st1" d="M751.4,609.4h-68.7c-2.1,0-3.8-1.7-3.8-3.8s1.7-3.8,3.8-3.8h68.7c2.1,0,3.8,1.7,3.8,3.8
			S753.5,609.4,751.4,609.4z"/>
		<path class="st1" d="M667.5,609.4h-7.6c-2.1,0-3.8-1.7-3.8-3.8s1.7-3.8,3.8-3.8h7.6c2.1,0,3.8,1.7,3.8,3.8
			S669.6,609.4,667.5,609.4z"/>
		<path class="st1" d="M644.6,609.4h-15.3c-2.1,0-3.8-1.7-3.8-3.8s1.7-3.8,3.8-3.8h15.3c2.1,0,3.8,1.7,3.8,3.8
			S646.7,609.4,644.6,609.4z"/>
		<path class="st1" d="M690.4,624.7h-15.3c-2.1,0-3.8-1.7-3.8-3.8s1.7-3.8,3.8-3.8h15.3c2.1,0,3.8,1.7,3.8,3.8
			S692.5,624.7,690.4,624.7z"/>
		<path class="st1" d="M713.3,556c-1.4,0-6.3,0-7.6,0c-2.1,0-3.8,1.7-3.8,3.8s1.7,3.8,3.8,3.8c1.4,0,6.3,0,7.6,0
			c2.1,0,3.8-1.7,3.8-3.8S715.4,556,713.3,556z"/>
		<path class="st1" d="M713.3,571.3c-1.4,0-36.8,0-38.2,0c-2.1,0-3.8,1.7-3.8,3.8s1.7,3.8,3.8,3.8c1.4,0,36.8,0,38.2,0
			c2.1,0,3.8-1.7,3.8-3.8S715.4,571.3,713.3,571.3z"/>
		<path class="st1" d="M751.5,586.5c-1.4,0-21.6,0-22.9,0c-2.1,0-3.8,1.7-3.8,3.8s1.7,3.8,3.8,3.8c1.4,0,21.6,0,22.9,0
			c2.1,0,3.8-1.7,3.8-3.8S753.6,586.5,751.5,586.5z"/>
		<path class="st1" d="M1186.9,754.6h-76.4c-2.1,0-3.8-1.7-3.8-3.8c0-2.1,1.7-3.8,3.8-3.8h76.4c2.1,0,3.8,1.7,3.8,3.8
			C1190.7,752.9,1189,754.6,1186.9,754.6z"/>
		<path class="st1" d="M1217.5,754.6h-15.3c-2.1,0-3.8-1.7-3.8-3.8c0-2.1,1.7-3.8,3.8-3.8h15.3c2.1,0,3.8,1.7,3.8,3.8
			C1221.3,752.9,1219.6,754.6,1217.5,754.6z"/>
		<path class="st1" d="M1255.7,769.9h-76.4c-2.1,0-3.8-1.7-3.8-3.8s1.7-3.8,3.8-3.8h76.4c2.1,0,3.8,1.7,3.8,3.8
			S1257.8,769.9,1255.7,769.9z"/>
		<path class="st1" d="M1164,769.9h-7.6c-2.1,0-3.8-1.7-3.8-3.8s1.7-3.8,3.8-3.8h7.6c2.1,0,3.8,1.7,3.8,3.8S1166.1,769.9,1164,769.9
			z"/>
		<path class="st1" d="M1140.9,769.9h-15c-2.1,0-3.8-1.7-3.8-3.8s1.7-3.8,3.8-3.8h15c2.1,0,3.8,1.7,3.8,3.8S1143,769.9,1140.9,769.9
			z"/>
		<path class="st1" d="M1209.8,739.3h-38.2c-2.1,0-3.8-1.7-3.8-3.8c0-2.1,1.7-3.8,3.8-3.8h38.2c2.1,0,3.8,1.7,3.8,3.8
			C1213.7,737.6,1211.9,739.3,1209.8,739.3z"/>
		<path class="st1" d="M1186.9,785.1h-15.3c-2.1,0-3.8-1.7-3.8-3.8s1.7-3.8,3.8-3.8h15.3c2.1,0,3.8,1.7,3.8,3.8
			S1189,785.1,1186.9,785.1z"/>
		<path class="st2" d="M1098.1,575.1c0,0-27.8,0-46.8,0c-19,0-34.4-15.4-34.4-34.4c0-17.8,13.6-32.3,31-34c-0.2-1.4-0.4-2.7-0.4-4.2
			c0-19,15.4-34.4,34.4-34.4c11,0,20.6,5.2,26.9,13.3c1.1-20.1,17.6-36.2,38-36.2c21.1,0,38.2,17.1,38.2,38.2c0,3.4-0.6,6.6-1.4,9.8
			c4.9-5.9,12.2-9.8,20.5-9.8c13.6,0,24.7,10.2,26.4,23.3c1.4-0.2,2.7-0.4,4.2-0.4c19,0,34.4,15.4,34.4,34.4
			c0,19-15.4,34.4-34.4,34.4c-19,0-72.6,0-72.6,0H1121v3.8h-22.9V575.1z"/>
		<path class="st3" d="M1146.8,441.4c23.2,0,42,18.8,42,42c0,0.1,0,0.2,0,0.4c4.6-2.7,9.9-4.2,15.3-4.2c14,0,26.1,9.6,29.5,23
			c0.4,0,0.7,0,1.1,0c21.1,0,38.2,17.1,38.2,38.2s-17.1,38.2-38.2,38.2H1121c-2.1,0-3.8-1.7-3.8-3.8s1.7-3.8,3.8-3.8h113.6
			c16.9,0,30.6-13.7,30.6-30.6c0-16.9-13.7-30.6-30.6-30.6c-0.9,0-1.8,0.1-2.6,0.2l-1.1,0.1c-0.2,0-0.3,0-0.5,0
			c-1.9,0-3.5-1.4-3.8-3.3c-1.5-11.4-11.2-20-22.6-20c-6.8,0-13.2,3.1-17.6,8.4c-0.7,0.9-1.8,1.4-2.9,1.4c-0.6,0-1.2-0.1-1.7-0.4
			c-1.6-0.8-2.4-2.6-1.9-4.4c0.9-3.3,1.3-6.1,1.3-8.8c0-19-15.4-34.4-34.4-34.4c-18.2,0-33.2,14.3-34.2,32.6c-0.1,1.6-1.1,3-2.7,3.4
			c-0.4,0.1-0.8,0.2-1.2,0.2c-1.1,0-2.3-0.5-3-1.5c-5.9-7.5-14.6-11.8-23.9-11.8c-16.9,0-30.6,13.7-30.6,30.6c0,0.9,0.1,1.8,0.2,2.6
			l0.1,1.1c0.1,1-0.2,2-0.8,2.8c-0.6,0.8-1.6,1.3-2.6,1.4c-15.7,1.6-27.5,14.6-27.5,30.2c0,16.9,13.7,30.6,30.6,30.6h46.8
			c2.1,0,3.8,1.7,3.8,3.8s-1.7,3.8-3.8,3.8h-46.8c-21.1,0-38.2-17.1-38.2-38.2c0-18.3,12.9-33.7,30.6-37.3c0-0.3,0-0.6,0-0.9
			c0-21.1,17.1-38.2,38.2-38.2c9,0,17.5,3.2,24.3,8.9C1110.8,454.8,1127.3,441.4,1146.8,441.4L1146.8,441.4z"/>
		<path class="st3" d="M1158.3,494.9c10.7,0,19.9,7.6,22.3,17.9c2.8-1.7,6-2.6,9.3-2.6c9.2,0,16.8,6.9,18,15.8
			c1.6-0.4,3-0.5,4.5-0.5c11.7,0,21.5,9.2,22.3,20.9c0.1,1.1-0.7,2-1.8,2c0,0-0.1,0-0.1,0c-1,0-1.8-0.8-1.9-1.8
			c-0.7-9.7-8.8-17.3-18.5-17.3c-1.7,0-3.6,0.3-5.6,1c-0.2,0.1-0.3,0.1-0.5,0.1c-0.4,0-0.8-0.2-1.2-0.4c-0.5-0.4-0.8-1-0.8-1.6
			c0-7.9-6.4-14.3-14.3-14.3c-3.4,0-6.8,1.3-9.4,3.6c-0.4,0.3-0.8,0.5-1.3,0.5c-0.2,0-0.5,0-0.7-0.1c-0.7-0.3-1.1-0.9-1.2-1.6
			c-0.8-9.9-9.1-17.6-18.9-17.6c-1.6,0-3.2,0.3-5.2,0.8c-0.2,0.1-0.4,0.1-0.5,0.1c-0.8,0-1.6-0.6-1.8-1.4c-0.3-1,0.3-2.1,1.3-2.4
			C1154.3,495.2,1156.3,494.9,1158.3,494.9L1158.3,494.9z"/>
		<path class="st2" d="M658.9,850.1c0,0-12,0-26.7,0c-14.8,0-26.7-12-26.7-26.7c0-13.6,10.2-24.7,23.3-26.4
			c-0.2-1.4-0.4-2.7-0.4-4.2c0-14.8,12-26.7,26.7-26.7c7.9,0,14.9,3.5,19.8,8.9c2.9-13.8,15.2-24.2,29.9-24.2
			c16.9,0,30.6,13.7,30.6,30.6c0,1.5-0.2,2.9-0.4,4.3c3.3-2.6,7.4-4.3,11.9-4.3c9.4,0,17.1,6.8,18.8,15.7c1.4-0.2,2.7-0.4,4.2-0.4
			c14.8,0,26.7,12,26.7,26.7c0,14.8-12,26.7-26.7,26.7s-57.3,0-57.3,0v3.8h-53.5V850.1z"/>
		<path class="st3" d="M645.5,815.7c1.1,0,1.9-0.9,1.9-1.9c0-9.3-7.6-16.9-16.9-16.9c-0.3,0.1-5.6,0-9.5,1c-1,0.3-1.6,1.3-1.3,2.3
			c0.3,1,1.3,1.6,2.3,1.3c3.4-0.9,8.4-0.9,8.5-0.9c7.2,0,13.1,5.9,13.1,13.1C643.6,814.8,644.5,815.7,645.5,815.7z"/>
		<circle class="st3" cx="1313.8" cy="877" r="4.6"/>
		<path class="st3" d="M632.1,853.9h26.7c2.1,0,3.8-1.7,3.8-3.8s-1.7-3.8-3.8-3.8h-26.7c-12.6,0-22.9-10.3-22.9-22.9
			c0-11.4,8.6-21.1,20-22.6c1-0.1,1.9-0.7,2.6-1.5c0.6-0.8,0.9-1.9,0.7-2.9c-0.2-1.2-0.4-2.4-0.4-3.6c0-12.6,10.3-22.9,22.9-22.9
			c6.5,0,12.5,2.7,17,7.6c1,1.1,2.5,1.5,3.8,1.1c1.4-0.4,2.5-1.5,2.8-2.9c2.6-12.3,13.6-21.2,26.1-21.2c14.7,0,26.7,12,26.7,26.7
			c0,1.1-0.2,2.1-0.3,3.2c-0.2,1.6,0.5,3.3,1.8,4.1c1.4,0.8,3,0.9,4.2-0.1c2.8-2.2,6.1-3.4,9.5-3.4c7.4,0,13.7,5.3,15,12.6
			c0.4,2,2.3,3.4,4.3,3.1c1.2-0.2,2.4-0.4,3.6-0.4c12.6,0,22.9,10.3,22.9,22.9c0,12.6-10.3,22.9-22.9,22.9h-57.3
			c-2.1,0-3.8,1.7-3.8,3.8s1.7,3.8,3.8,3.8h57.3c16.9,0,30.6-13.7,30.6-30.6c0-16.9-13.7-30.6-30.6-30.6c-0.5,0-0.9,0-1.3,0
			c-3.2-9.1-11.7-15.3-21.6-15.3c-2.7,0-5.3,0.5-7.7,1.4c-1.3-17.8-16.2-31.9-34.3-31.9c-14,0-26.5,8.6-31.7,21.2
			c-5.2-3.8-11.5-5.9-17.9-5.9c-16.9,0-30.6,13.7-30.6,30.6c0,0.4,0,0.7,0,1.1c-13.3,3.4-22.9,15.5-22.9,29.5
			C601.6,840.2,615.3,853.9,632.1,853.9z"/>
		<path class="st3" d="M1286.2,872.4c1.5,0,7.7,0,9.2,0c2.5,0,4.6,2.1,4.6,4.6s-2.1,4.6-4.6,4.6c-1.5,0-7.7,0-9.2,0
			c-2.5,0-4.6-2.1-4.6-4.6S1283.7,872.4,1286.2,872.4z"/>
	</g>
	<g>
		<path class="st4" d="M837.2,845.3h-18.9c-5.9,0-10.6-4.8-10.6-10.6v-18.9c0-5.9,4.8-10.6,10.6-10.6h18.9c5.9,0,10.6,4.8,10.6,10.6
			v18.9C847.8,840.5,843,845.3,837.2,845.3L837.2,845.3z M837.2,845.3"/>
		<path class="st4" d="M1035.5,845.3h-18.9c-5.9,0-10.6-4.8-10.6-10.6v-18.9c0-5.9,4.8-10.6,10.6-10.6h18.9
			c5.9,0,10.6,4.8,10.6,10.6v18.9C1046.1,840.5,1041.4,845.3,1035.5,845.3L1035.5,845.3z M1035.5,845.3"/>
		<path class="st5" d="M1044.7,816.9H809.1c-24.1,0-43.5-19.5-43.5-43.5V523.1c0-24.1,19.5-43.5,43.5-43.5h235.6
			c24,0,43.5,19.5,43.5,43.5v250.2C1088.3,797.4,1068.8,816.9,1044.7,816.9L1044.7,816.9z M1044.7,816.9"/>
		<path class="st4" d="M1044.7,479.6H809.1c-23.9,0-43.3,19.3-43.5,43.2h110v16.1c0,5.5,4.5,10,10,10h202.7v-25.7
			C1088.3,499.1,1068.8,479.6,1044.7,479.6L1044.7,479.6z M1044.7,479.6"/>
		<path class="st6" d="M1044.7,479.6h-48.2c20.2,0,36.7,16.4,36.7,36.7v210.7c0,20.2-16.4,36.7-36.7,36.7H798.1
			c-14.2,0-26.5-8.1-32.6-19.9v29.7c0,24,19.5,43.5,43.5,43.5h235.6c24,0,43.5-19.5,43.5-43.5V523.1
			C1088.3,499.1,1068.8,479.6,1044.7,479.6L1044.7,479.6z M1044.7,479.6"/>
		<path class="st7" d="M1033.2,516.2v32.6h55.1v-25.7c0-24.1-19.5-43.5-43.5-43.5h-48.2C1016.7,479.6,1033.2,496,1033.2,516.2
			L1033.2,516.2z M1033.2,516.2"/>
		<path class="st4" d="M1032.8,682.1c0,58.5-47.4,105.9-105.9,105.9C868.4,788,821,740.5,821,682.1c0-58.5,47.4-105.9,105.9-105.9
			C985.4,576.1,1032.8,623.6,1032.8,682.1L1032.8,682.1z M1032.8,682.1"/>
		<path class="st8" d="M990.4,730c-14.5,19.2-37.6,31.6-63.5,31.6c-43.9,0-79.5-35.6-79.5-79.5c0-43.9,35.6-79.5,79.5-79.5
			c25.7,0,48.5,12.1,63,31C997.8,641.5,997,720.5,990.4,730L990.4,730z M990.4,730"/>
		<path class="st9" d="M994.8,705.9c0,0-13.7,9.8-41.1,9.8c-27.3,0-33.9-22.4-62.9-22.4c-29,0-39.2,14.2-39.2,14.2
			s16.9,54.1,75.4,54.1c30.5,0,47.3-12,56.4-23.5c5.4-5.3,7.1-8.1,7.6-9.2C993.9,722.3,994.8,705.9,994.8,705.9L994.8,705.9z
			 M994.8,705.9"/>
		<path class="st7" d="M926.9,576.1c-4.7,0-9.4,0.3-13.9,0.9c38.3,5.8,67.7,38.9,67.7,78.9c0,44.1-35.7,79.8-79.8,79.8
			c-40,0-73.1-29.4-78.9-67.7c-0.6,4.6-0.9,9.2-0.9,14c0,58.5,47.4,105.9,105.9,105.9c58.5,0,105.9-47.4,105.9-105.9
			C1032.8,623.6,985.4,576.1,926.9,576.1L926.9,576.1z M926.9,576.1"/>
		<path class="st10" d="M969.2,614.6c7.3,12.1,11.5,26.2,11.5,41.3c0,44.1-35.7,79.8-79.8,79.8c-15.1,0-29.3-4.2-41.3-11.5
			c14.1,22.4,39,37.3,67.4,37.3c25.9,0,48.9-12.4,63.4-31.7c6.6-9.5,7.5-88.5-0.4-96.4C984.2,626.1,977.2,619.7,969.2,614.6
			L969.2,614.6z M969.2,614.6"/>
		<path class="st11" d="M953.9,715.7c-14.1,12.5-32.6,20.1-53,20.1c-15,0-29-4.1-40.9-11.3c2.8,4.3,6.3,9.1,10.7,13.7
			c14.4,14.4,34.2,23.3,56.2,23.4c0,0,0,0,0.1,0h0c25.8,0,48.7-12.3,63.2-31.3c1.4-2.1,1.7-3.8,2.4-6.6c0.9-4.5,1.7-10.7,2.2-17.8
			C994.5,706.1,980.8,715.6,953.9,715.7L953.9,715.7z M953.9,715.7"/>
		<path class="st1" d="M924.5,644.1c-5.2,0-9.7-3.9-10.2-9.2c-0.6-5.6,3.5-10.7,9.2-11.3l0.1,0c1.1-0.2,2-0.3,3.3-0.3
			c5.7,0,10.3,4.6,10.3,10.3c0,5.6-4.6,10.2-10.2,10.3c-0.4,0.1-0.8,0.1-1.4,0.2C925.2,644.1,924.9,644.1,924.5,644.1L924.5,644.1z
			 M923.5,623.6C923.5,623.6,923.5,623.6,923.5,623.6C923.5,623.6,923.5,623.6,923.5,623.6L923.5,623.6z M923.5,623.6"/>
		<path class="st1" d="M882.9,671.9c-1.5,0-2.9-0.3-4.3-1c-5.1-2.4-7.4-8.5-5-13.7c4.1-8.7,10.4-16.4,18.2-22.3
			c4.6-3.4,11-2.5,14.4,2.1c3.4,4.6,2.5,11-2.1,14.4c-5.1,3.8-9.2,8.8-11.9,14.5C890.5,669.7,886.8,671.9,882.9,671.9L882.9,671.9z
			 M882.9,671.9"/>
		<path class="st12" d="M978.7,549c-3.4,0-6.2-2.8-6.2-6.2v-59.5c0-3.4,2.8-6.2,6.2-6.2c3.4,0,6.2,2.8,6.2,6.2v59.5
			C984.9,546.2,982.1,549,978.7,549L978.7,549z M978.7,549"/>
		<path class="st1" d="M943.7,516.7c0,9.4-7.6,17-17,17c-9.4,0-17-7.6-17-17c0-9.4,7.6-17,17-17
			C936.1,499.7,943.7,507.3,943.7,516.7L943.7,516.7z M943.7,516.7"/>
		<path class="st12" d="M1052.7,524.6h-15.4c-3.4,0-6.2-2.8-6.2-6.2c0-3.4,2.8-6.2,6.2-6.2h15.4c3.4,0,6.2,2.8,6.2,6.2
			C1058.8,521.8,1056.1,524.6,1052.7,524.6L1052.7,524.6z M1052.7,524.6"/>
		<path class="st12" d="M1015.6,512.4h-15.4c-3.4,0-6.2-2.8-6.2-6.2c0-3.4,2.8-6.2,6.2-6.2h15.4c3.4,0,6.2,2.8,6.2,6.2
			C1021.8,509.7,1019,512.4,1015.6,512.4L1015.6,512.4z M1015.6,512.4"/>
		<path class="st12" d="M1015.6,535.6h-15.4c-3.4,0-6.2-2.8-6.2-6.2c0-3.4,2.8-6.2,6.2-6.2h15.4c3.4,0,6.2,2.8,6.2,6.2
			C1021.8,532.9,1019,535.6,1015.6,535.6L1015.6,535.6z M1015.6,535.6"/>
		<path class="st13" d="M1007,823.1c-3.4,0-6.2-2.8-6.2-6.2v-20.7c0-15.4,12.6-28,28-28h54.1c3.4,0,6.2,2.8,6.2,6.2
			c0,3.4-2.8,6.2-6.2,6.2h-54.1c-8.6,0-15.7,7-15.7,15.7v20.7C1013.2,820.3,1010.4,823.1,1007,823.1L1007,823.1z M1007,823.1"/>
		<path class="st12" d="M875.6,541.3c-3.4,0-6.2-2.8-6.2-6.2v-51.8c0-3.4,2.8-6.2,6.2-6.2s6.2,2.8,6.2,6.2v51.8
			C881.8,538.5,879,541.3,875.6,541.3L875.6,541.3z M875.6,541.3"/>
		<path class="st1" d="M802,622c-5.7,0-10.3-4.6-10.3-10.3v-17.2c0-5.7,4.6-10.3,10.3-10.3c5.7,0,10.3,4.6,10.3,10.3v17.2
			C812.2,617.4,807.6,622,802,622L802,622z M802,622"/>
		<path class="st1" d="M802,573c-5.7,0-10.3-4.6-10.3-10.3v-3.6c0-5.7,4.6-10.3,10.3-10.3c5.7,0,10.3,4.6,10.3,10.3v3.6
			C812.2,568.4,807.6,573,802,573L802,573z M802,573"/>
	</g>
</g>
</svg>
