<?xml version="1.0" encoding="utf-8"?>
<!-- Generator: Adobe Illustrator 22.1.0, SVG Export Plug-In . SVG Version: 6.00 Build 0)  -->
<svg version="1.1" id="Layer_1" xmlns="http://www.w3.org/2000/svg" xmlns:xlink="http://www.w3.org/1999/xlink" x="0px" y="0px"
	 viewBox="0 0 1920 1280" style="enable-background:new 0 0 1920 1280;" xml:space="preserve">
<style type="text/css">
	.st0{fill:#C7EDE6;}
	.st1{fill:#FFFFFF;}
	.st2{fill:#FDFCEF;}
	.st3{fill:#472B29;}
	.st4{fill:#518699;}
	.st5{fill:#78EAC4;}
	.st6{fill:#71AFC4;}
	.st7{fill:#D49C8D;}
	.st8{fill:#C7758D;}
	.st9{fill:#B3586B;}
	.st10{fill:#B07676;}
	.st11{fill:#A45775;}
</style>
<g>
	<g>
		<path class="st0" d="M1207.7,691.3c8.7-16.5,13.6-35.2,13.6-55.1c0-50.6-31.8-93.6-76.4-110.6c0-0.1,0-0.1,0-0.2
			c0-88.6-71.8-160.4-160.4-160.4c-74.7,0-137.4,51.2-155.2,120.4c-11.3-3.7-23.3-5.8-35.8-5.8c-58.8,0-107.1,44.3-113.7,101.2
			c-39.8,8.4-69.6,43.7-69.6,85.9c0,48.5,39.3,87.8,87.8,87.8c1.4,0,2.7-0.1,4-0.2c0,1.3-0.2,2.6-0.2,4
			c0,86.5,70.1,156.6,156.6,156.6c49.2,0,93-22.7,121.7-58.2c16.6,17,39.8,27.6,65.4,27.6c35.5,0,66.3-20.2,81.5-49.8
			c8,2.6,16.6,4,25.5,4c46.4,0,84-37.6,84-84C1236.6,729.3,1225.3,706.7,1207.7,691.3z"/>
		<path class="st1" d="M689.7,594.2H614c-2.1,0-3.8-1.7-3.8-3.8s1.7-3.8,3.8-3.8h75.7c2.1,0,3.8,1.7,3.8,3.8
			S691.8,594.2,689.7,594.2z"/>
		<path class="st1" d="M713.3,594.2h-7.6c-2.1,0-3.8-1.7-3.8-3.8s1.7-3.8,3.8-3.8h7.6c2.1,0,3.8,1.7,3.8,3.8
			S715.4,594.2,713.3,594.2z"/>
		<path class="st1" d="M751.4,609.4h-68.7c-2.1,0-3.8-1.7-3.8-3.8s1.7-3.8,3.8-3.8h68.7c2.1,0,3.8,1.7,3.8,3.8
			S753.5,609.4,751.4,609.4z"/>
		<path class="st1" d="M667.5,609.4h-7.6c-2.1,0-3.8-1.7-3.8-3.8s1.7-3.8,3.8-3.8h7.6c2.1,0,3.8,1.7,3.8,3.8
			S669.6,609.4,667.5,609.4z"/>
		<path class="st1" d="M644.6,609.4h-15.3c-2.1,0-3.8-1.7-3.8-3.8s1.7-3.8,3.8-3.8h15.3c2.1,0,3.8,1.7,3.8,3.8
			S646.7,609.4,644.6,609.4z"/>
		<path class="st1" d="M690.4,624.7h-15.3c-2.1,0-3.8-1.7-3.8-3.8s1.7-3.8,3.8-3.8h15.3c2.1,0,3.8,1.7,3.8,3.8
			S692.5,624.7,690.4,624.7z"/>
		<path class="st1" d="M713.3,556c-1.4,0-6.3,0-7.6,0c-2.1,0-3.8,1.7-3.8,3.8s1.7,3.8,3.8,3.8c1.4,0,6.3,0,7.6,0
			c2.1,0,3.8-1.7,3.8-3.8S715.4,556,713.3,556z"/>
		<path class="st1" d="M713.3,571.3c-1.4,0-36.8,0-38.2,0c-2.1,0-3.8,1.7-3.8,3.8s1.7,3.8,3.8,3.8c1.4,0,36.8,0,38.2,0
			c2.1,0,3.8-1.7,3.8-3.8S715.4,571.3,713.3,571.3z"/>
		<path class="st1" d="M751.5,586.5c-1.4,0-21.6,0-22.9,0c-2.1,0-3.8,1.7-3.8,3.8s1.7,3.8,3.8,3.8c1.4,0,21.6,0,22.9,0
			c2.1,0,3.8-1.7,3.8-3.8S753.6,586.5,751.5,586.5z"/>
		<path class="st1" d="M1186.9,754.6h-76.4c-2.1,0-3.8-1.7-3.8-3.8c0-2.1,1.7-3.8,3.8-3.8h76.4c2.1,0,3.8,1.7,3.8,3.8
			C1190.7,752.9,1189,754.6,1186.9,754.6z"/>
		<path class="st1" d="M1217.5,754.6h-15.3c-2.1,0-3.8-1.7-3.8-3.8c0-2.1,1.7-3.8,3.8-3.8h15.3c2.1,0,3.8,1.7,3.8,3.8
			C1221.3,752.9,1219.6,754.6,1217.5,754.6z"/>
		<path class="st1" d="M1255.7,769.9h-76.4c-2.1,0-3.8-1.7-3.8-3.8s1.7-3.8,3.8-3.8h76.4c2.1,0,3.8,1.7,3.8,3.8
			S1257.8,769.9,1255.7,769.9z"/>
		<path class="st1" d="M1164,769.9h-7.6c-2.1,0-3.8-1.7-3.8-3.8s1.7-3.8,3.8-3.8h7.6c2.1,0,3.8,1.7,3.8,3.8S1166.1,769.9,1164,769.9
			z"/>
		<path class="st1" d="M1140.9,769.9h-15c-2.1,0-3.8-1.7-3.8-3.8s1.7-3.8,3.8-3.8h15c2.1,0,3.8,1.7,3.8,3.8S1143,769.9,1140.9,769.9
			z"/>
		<path class="st1" d="M1209.8,739.3h-38.2c-2.1,0-3.8-1.7-3.8-3.8s1.7-3.8,3.8-3.8h38.2c2.1,0,3.8,1.7,3.8,3.8
			S1211.9,739.3,1209.8,739.3z"/>
		<path class="st1" d="M1186.9,785.1h-15.3c-2.1,0-3.8-1.7-3.8-3.8s1.7-3.8,3.8-3.8h15.3c2.1,0,3.8,1.7,3.8,3.8
			S1189,785.1,1186.9,785.1z"/>
		<path class="st2" d="M1098.1,575.1c0,0-27.8,0-46.8,0c-19,0-34.4-15.4-34.4-34.4c0-17.8,13.6-32.3,31-34c-0.2-1.4-0.4-2.7-0.4-4.2
			c0-19,15.4-34.4,34.4-34.4c11,0,20.6,5.2,26.9,13.3c1.1-20.1,17.6-36.2,38-36.2c21.1,0,38.2,17.1,38.2,38.2c0,3.4-0.6,6.6-1.4,9.8
			c4.9-5.9,12.2-9.8,20.5-9.8c13.6,0,24.7,10.2,26.4,23.3c1.4-0.2,2.7-0.4,4.2-0.4c19,0,34.4,15.4,34.4,34.4
			c0,19-15.4,34.4-34.4,34.4c-19,0-72.6,0-72.6,0H1121v3.8h-22.9V575.1z"/>
		<path class="st3" d="M1146.8,441.4c23.2,0,42,18.8,42,42c0,0.1,0,0.2,0,0.4c4.6-2.7,9.9-4.2,15.3-4.2c14,0,26.1,9.6,29.5,23
			c0.4,0,0.7,0,1.1,0c21.1,0,38.2,17.1,38.2,38.2s-17.1,38.2-38.2,38.2H1121c-2.1,0-3.8-1.7-3.8-3.8s1.7-3.8,3.8-3.8h113.6
			c16.9,0,30.6-13.7,30.6-30.6c0-16.9-13.7-30.6-30.6-30.6c-0.9,0-1.8,0.1-2.6,0.2l-1.1,0.1c-0.2,0-0.3,0-0.5,0
			c-1.9,0-3.5-1.4-3.8-3.3c-1.5-11.4-11.2-20-22.6-20c-6.8,0-13.2,3.1-17.6,8.4c-0.7,0.9-1.8,1.4-2.9,1.4c-0.6,0-1.2-0.1-1.7-0.4
			c-1.6-0.8-2.4-2.6-1.9-4.4c0.9-3.3,1.3-6.1,1.3-8.8c0-19-15.4-34.4-34.4-34.4c-18.2,0-33.2,14.3-34.2,32.6c-0.1,1.6-1.1,3-2.7,3.4
			c-0.4,0.1-0.8,0.2-1.2,0.2c-1.1,0-2.3-0.5-3-1.5c-5.9-7.5-14.6-11.8-23.9-11.8c-16.9,0-30.6,13.7-30.6,30.6c0,0.9,0.1,1.8,0.2,2.6
			l0.1,1.1c0.1,1-0.2,2-0.8,2.8c-0.6,0.8-1.6,1.3-2.6,1.4c-15.7,1.6-27.5,14.6-27.5,30.2c0,16.9,13.7,30.6,30.6,30.6h46.8
			c2.1,0,3.8,1.7,3.8,3.8s-1.7,3.8-3.8,3.8h-46.8c-21.1,0-38.2-17.1-38.2-38.2c0-18.3,12.9-33.7,30.6-37.3c0-0.3,0-0.6,0-0.9
			c0-21.1,17.1-38.2,38.2-38.2c9,0,17.5,3.2,24.3,8.9C1110.8,454.8,1127.3,441.4,1146.8,441.4L1146.8,441.4z"/>
		<path class="st3" d="M1158.3,494.9c10.7,0,19.9,7.6,22.3,17.9c2.8-1.7,6-2.6,9.3-2.6c9.2,0,16.8,6.9,18,15.8
			c1.6-0.4,3-0.5,4.5-0.5c11.7,0,21.5,9.2,22.3,20.9c0.1,1.1-0.7,2-1.8,2c0,0-0.1,0-0.1,0c-1,0-1.8-0.8-1.9-1.8
			c-0.7-9.7-8.8-17.3-18.5-17.3c-1.7,0-3.6,0.3-5.6,1c-0.2,0.1-0.3,0.1-0.5,0.1c-0.4,0-0.8-0.2-1.2-0.4c-0.5-0.4-0.8-1-0.8-1.6
			c0-7.9-6.4-14.3-14.3-14.3c-3.4,0-6.8,1.3-9.4,3.6c-0.4,0.3-0.8,0.5-1.3,0.5c-0.2,0-0.5,0-0.7-0.1c-0.7-0.3-1.1-0.9-1.2-1.6
			c-0.8-9.9-9.1-17.6-18.9-17.6c-1.6,0-3.2,0.3-5.2,0.8c-0.2,0.1-0.4,0.1-0.5,0.1c-0.8,0-1.6-0.6-1.8-1.4c-0.3-1,0.3-2.1,1.3-2.4
			C1154.3,495.2,1156.3,494.9,1158.3,494.9L1158.3,494.9z"/>
		<path class="st2" d="M658.9,850.1c0,0-12,0-26.7,0c-14.8,0-26.7-12-26.7-26.7c0-13.6,10.2-24.7,23.3-26.4
			c-0.2-1.4-0.4-2.7-0.4-4.2c0-14.8,12-26.7,26.7-26.7c7.9,0,14.9,3.5,19.8,8.9c2.9-13.8,15.2-24.2,29.9-24.2
			c16.9,0,30.6,13.7,30.6,30.6c0,1.5-0.2,2.9-0.4,4.3c3.3-2.6,7.4-4.3,11.9-4.3c9.4,0,17.1,6.8,18.8,15.7c1.4-0.2,2.7-0.4,4.2-0.4
			c14.8,0,26.7,12,26.7,26.7c0,14.8-12,26.7-26.7,26.7s-57.3,0-57.3,0v3.8h-53.5V850.1z"/>
		<path class="st3" d="M645.5,815.7c1.1,0,1.9-0.9,1.9-1.9c0-9.3-7.6-16.9-16.9-16.9c-0.3,0.1-5.6,0-9.5,1c-1,0.3-1.6,1.3-1.3,2.3
			c0.3,1,1.3,1.6,2.3,1.3c3.4-0.9,8.4-0.9,8.5-0.9c7.2,0,13.1,5.9,13.1,13.1C643.6,814.8,644.5,815.7,645.5,815.7z"/>
		<circle class="st3" cx="1313.8" cy="877" r="4.6"/>
		<path class="st3" d="M632.1,853.9h26.7c2.1,0,3.8-1.7,3.8-3.8s-1.7-3.8-3.8-3.8h-26.7c-12.6,0-22.9-10.3-22.9-22.9
			c0-11.4,8.6-21.1,20-22.6c1-0.1,1.9-0.7,2.6-1.5c0.6-0.8,0.9-1.9,0.7-2.9c-0.2-1.2-0.4-2.4-0.4-3.6c0-12.6,10.3-22.9,22.9-22.9
			c6.5,0,12.5,2.7,17,7.6c1,1.1,2.5,1.5,3.8,1.1c1.4-0.4,2.5-1.5,2.8-2.9c2.6-12.3,13.6-21.2,26.1-21.2c14.7,0,26.7,12,26.7,26.7
			c0,1.1-0.2,2.1-0.3,3.2c-0.2,1.6,0.5,3.3,1.8,4.1c1.4,0.8,3,0.9,4.2-0.1c2.8-2.2,6.1-3.4,9.5-3.4c7.4,0,13.7,5.3,15,12.6
			c0.4,2,2.3,3.4,4.3,3.1c1.2-0.2,2.4-0.4,3.6-0.4c12.6,0,22.9,10.3,22.9,22.9c0,12.6-10.3,22.9-22.9,22.9h-57.3
			c-2.1,0-3.8,1.7-3.8,3.8s1.7,3.8,3.8,3.8h57.3c16.9,0,30.6-13.7,30.6-30.6c0-16.9-13.7-30.6-30.6-30.6c-0.5,0-0.9,0-1.3,0
			c-3.2-9.1-11.7-15.3-21.6-15.3c-2.7,0-5.3,0.5-7.7,1.4c-1.3-17.8-16.2-31.9-34.3-31.9c-14,0-26.5,8.6-31.7,21.2
			c-5.2-3.8-11.5-5.9-17.9-5.9c-16.9,0-30.6,13.7-30.6,30.6c0,0.4,0,0.7,0,1.1c-13.3,3.4-22.9,15.5-22.9,29.5
			C601.6,840.2,615.3,853.9,632.1,853.9z"/>
		<path class="st3" d="M1286.2,872.4c1.5,0,7.7,0,9.2,0c2.5,0,4.6,2.1,4.6,4.6s-2.1,4.6-4.6,4.6c-1.5,0-7.7,0-9.2,0
			c-2.5,0-4.6-2.1-4.6-4.6S1283.7,872.4,1286.2,872.4z"/>
	</g>
	<g>
		<path class="st4" d="M910.1,772.6c-4.6,0-8.5-3.4-9-8.1c-6.2-56.1-20-90.4-30.5-109.3c-11.3-20.3-21.2-27.5-21.3-27.6l0.1,0
			l10.3-15c1.9,1.3,46.6,33.3,59.4,149.8c0.5,5-3,9.5-8,10C910.7,772.5,910.4,772.6,910.1,772.6L910.1,772.6z M910.1,772.6"/>
		<path class="st4" d="M950.4,768.1c-4.6,0-8.5-3.4-9-8.1c-12.5-113.8,3.9-198.9,4.6-202.4c1-4.9,5.8-8.1,10.7-7.1
			c4.9,1,8.1,5.8,7.1,10.7c-0.2,1-16.6,86.2-4.4,196.9c0.5,5-3,9.5-8,10C951.1,768.1,950.7,768.1,950.4,768.1L950.4,768.1z
			 M950.4,768.1"/>
		<path class="st5" d="M997.2,689.3c-5.1-7.4-4.5-16.6,1.3-20.7c5.8-4,14.7-1.4,19.8,6c1.3,1.8,2.2,3.7,2.8,5.7
			c0.3,1.1,1.7,1.7,2.7,1.1c3.8-2.1,7.7-4.5,11.4-7.1c6.1-4.2,11.6-8.8,16.4-13.5c0.8-0.8,0.8-2.1-0.1-2.8c-1.3-1.1-2.6-2.4-3.6-4
			c-5.1-7.4-4.5-16.6,1.3-20.7c5.1-3.6,12.6-1.9,17.8,3.6c0.9,0.9,2.5,0.7,3-0.4c7.3-14.5,9.1-32.6,5.1-38.8
			c-4.2-6.6-26.4-5.1-35.1-4c-8.6,1.1-19.8,2.4-32.9,7.1c-10,3.6-22.3,10.8-29,16.2c-6.7,5.4-17.8,19-17.8,19
			c-12.3,17.3-16.1,35.1-8,46.8c7.7,11.1,24.4,14.1,43.7,9.6C997.4,692,998,690.4,997.2,689.3C997.2,689.3,997.2,689.3,997.2,689.3
			L997.2,689.3z M997.2,689.3"/>
		<path class="st6" d="M1075.1,597.7c-1.2-1.8-3.7-3-6.9-3.8c-0.8,4.6-3,10.6-6.3,16.7c-2.4,4.4-7.3,7-12.2,5.9
			c-3.4-0.7-7.3,0-10.6,2.3c-5.8,4-7.7,13.7-8.7,19.6c-0.5,2.9-0.6,7.5-7.3,12.2c-4.5,3.1-10.7,2.6-14.1,1.4
			c-5.7-2-13.6-2.7-19.4,1.3c-2.1,1.4-4.3,4.8-4.7,7.6c-1.3,8-7.7,14.2-15.7,15.8c-8.4,1.6-15.4,1.3-20-1.1c0.7,2.5,1.8,4.9,3.3,7.1
			c7.7,11.1,24.4,14.1,43.7,9.6c1.3-0.3,1.9-1.8,1.1-3c0,0,0,0,0,0c-5.1-7.4-4.5-16.6,1.3-20.7c5.8-4,14.7-1.4,19.8,6
			c1.3,1.8,2.2,3.7,2.8,5.7c0.3,1.1,1.7,1.7,2.7,1.1c3.8-2.1,7.7-4.5,11.4-7.1c6.1-4.2,11.6-8.8,16.4-13.5c0.8-0.8,0.8-2.1-0.1-2.8
			c-1.3-1.1-2.6-2.4-3.6-4c-5.1-7.4-4.5-16.6,1.3-20.7c5.1-3.6,12.6-1.9,17.8,3.6c0.9,0.9,2.5,0.7,3.1-0.4
			C1077.3,622,1079.1,603.9,1075.1,597.7L1075.1,597.7z M1075.1,597.7"/>
		<path class="st7" d="M940.1,842.7h-18.4c-30.1,0-54.5-24.4-54.5-54.5v-61.9c0-11.9,9.6-21.5,21.5-21.5h84.5
			c11.9,0,21.5,9.6,21.5,21.5v61.9C994.6,818.3,970.2,842.7,940.1,842.7L940.1,842.7z M940.1,842.7"/>
		<path class="st8" d="M973.1,704.7H945c9.1,0,16.6,7.4,16.6,16.6v51.8c0,23.2-18.8,42-42,42h-10.5c-23.2,0-42-18.8-42-42v15.1
			c0,30.1,24.4,54.5,54.5,54.5h18.4c30.1,0,54.5-24.4,54.5-54.5v-61.9C994.6,714.4,985,704.7,973.1,704.7L973.1,704.7z M973.1,704.7
			"/>
		<path class="st9" d="M944.5,842.2c-1.4,0-2.8-0.5-3.9-1.6l-65.7-65.7c-2.1-2.1-2.1-5.6,0-7.7c2.1-2.1,5.6-2.1,7.7,0l65.7,65.7
			c2.1,2.1,2.1,5.6,0,7.7C947.3,841.7,945.9,842.2,944.5,842.2L944.5,842.2z M944.5,842.2"/>
		<path class="st9" d="M980.5,823.7c-1.4,0-2.8-0.5-3.9-1.6L874.3,719.7c-2.1-2.1-2.1-5.6,0-7.7c2.1-2.1,5.6-2.1,7.7,0l102.4,102.4
			c2.1,2.1,2.1,5.6,0,7.7C983.3,823.2,981.9,823.7,980.5,823.7L980.5,823.7z M980.5,823.7"/>
		<path class="st9" d="M987.5,775.1c-1.4,0-2.8-0.5-3.9-1.6l-62.3-62.3c-2.1-2.1-2.1-5.6,0-7.7c2.1-2.1,5.6-2.1,7.7,0l62.3,62.3
			c2.1,2.1,2.1,5.6,0,7.7C990.2,774.6,988.8,775.1,987.5,775.1L987.5,775.1z M987.5,775.1"/>
		<path class="st10" d="M867.1,788.1c0,1.3,0.1,2.6,0.1,3.8h127.2c0-0.1,0-0.1,0-0.2l0.1-28.3H867.1V788.1z M867.1,788.1"/>
		<path class="st11" d="M961.5,763.5v9.6c0,6.8-1.6,13.2-4.5,18.9h37.5c0.1-1.3,0.1-2.5,0.1-3.8v-24.7H961.5z M961.5,763.5"/>
		<path class="st11" d="M871.6,792c-2.9-5.7-4.5-12.1-4.5-18.9v15.1c0,1.3,0.1,2.6,0.1,3.8H871.6z M871.6,792"/>
		<path class="st5" d="M887.5,590.2c-10.4,7-21.7,8.5-25.3,3.2c-3.6-5.3,2-15.3,12.4-22.3c2-1.4,4-2.5,6.1-3.4
			c2.5-1.2,3.6-4.2,2.3-6.6c-1.4-2.6-2.9-5.2-4.6-7.8c-3.2-4.7-6.8-8.9-10.7-12.6c-1.8-1.7-4.7-1.8-6.6-0.1c-1.4,1.3-3,2.5-4.7,3.7
			c-10.4,7-21.7,8.5-25.3,3.2c-2.8-4.2,0.1-11.3,6.5-17.6c2.1-2.1,1.2-5.7-1.7-6.3c-14.2-3.1-28.8-1-40.9,7.2
			c-12.1,8.2-19.5,20.9-21.9,35.3c-0.5,2.9,2.5,5.2,5.2,3.9c8.3-3.8,16.1-3.8,18.9,0.4c3.6,5.3-2,15.3-12.4,22.3
			c-2.1,1.4-4.1,2.6-6.2,3.5c-1.8,0.8-2.6,2.8-1.9,4.7c2,5.4,4.7,10.7,8.1,15.7c2,2.9,4.1,5.6,6.3,8.1c1.4,1.6,3.9,1.7,5.4,0.2
			c1.8-1.9,4-3.7,6.4-5.3c10.4-7,21.7-8.5,25.3-3.2c3.6,5.3-2,15.3-12.4,22.3c-0.1,0.1-0.2,0.1-0.3,0.2c-1.5,1-1.3,3.1,0.4,3.8
			c17.5,7.5,36.9,6.8,52.2-3.5c15.3-10.4,23.1-28.1,22.7-47.1C891,590.2,889,589.2,887.5,590.2C887.6,590.2,887.5,590.2,887.5,590.2
			L887.5,590.2z M887.5,590.2"/>
		<path class="st6" d="M891,591.9c0-1.8-2-2.7-3.4-1.8c0,0,0,0,0,0c-10.4,7-21.7,8.5-25.3,3.2c-3.6-5.3,2-15.3,12.4-22.3
			c2-1.4,4-2.5,6.1-3.4c2.5-1.2,3.6-4.2,2.3-6.6c-1.4-2.6-2.9-5.2-4.6-7.8c-3.2-4.7-6.8-8.9-10.7-12.6c-1.8-1.7-4.7-1.8-6.6-0.1
			c-1.4,1.3-3,2.5-4.7,3.7c-3.4,2.3-6.9,4-10.2,5c1.6,1.8,3.1,3.8,4.6,5.9c0,0,0,0.1,0.1,0.1c3.1,4.6,0.5,10.1-2.9,13.9
			c0,0-0.9,0.8-1,0.9c-7.3,8-6.3,15.3-5.6,20.2c1.5,10.4,22.2,18.6,8.4,30c-10,8.2-17.8,8.1-23.8,8.9c-2.3,3.3-5.7,6.6-9.9,9.4
			c-0.1,0.1-0.2,0.1-0.3,0.2c-1.5,1-1.3,3.1,0.4,3.8c17.5,7.5,36.9,6.8,52.2-3.5C883.6,628.7,891.4,610.9,891,591.9L891,591.9z
			 M891,591.9"/>
		<path class="st5" d="M1009.6,571.6c-14.2-5.6-23.5-15.9-20.7-23.1c2.8-7.2,16.6-8.6,30.9-3c3.9,1.5,7.5,3.4,10.5,5.5
			c1.2,0.8,2.8,0.5,3.5-0.7c2.5-4.2,4.6-8.6,6.5-13.3c3-7.6,4.8-15.2,5.7-22.8c0.1-1.3-0.7-2.4-2-2.7c-3.2-0.6-6.5-1.5-9.8-2.8
			c-14.2-5.6-23.5-15.9-20.7-23.2c2.5-6.4,13.5-8.2,25.7-4.7c1.9,0.5,3.6-1.3,3-3.1c-6.3-18.2-19.1-32.9-36.9-39.9
			c-17.8-7-37.2-4.8-54.1,4.3c-1.7,0.9-1.7,3.4,0.1,4.3c11.5,5.8,18.5,14.7,16,21.1c-2.8,7.2-16.6,8.6-30.9,3
			c-3.4-1.3-6.6-3-9.4-4.8c-1.1-0.7-2.5-0.4-3.3,0.6c-4.5,6.2-8.4,13.1-11.3,20.7c-1.8,4.7-3.3,9.5-4.3,14.3
			c-0.3,1.4,0.7,2.7,2.1,2.9c3.7,0.5,7.7,1.5,11.8,3.1c14.2,5.6,23.5,15.9,20.7,23.1c-2.8,7.2-16.6,8.6-30.9,3
			c-0.3-0.1-0.5-0.2-0.8-0.3c-1.8-0.7-3.6,0.8-3.3,2.7c4.5,22.9,18.6,42.1,39.7,50.3c21.1,8.2,44.5,3.7,63.3-10.1
			c1.6-1.1,1.2-3.5-0.6-4.2C1009.9,571.7,1009.8,571.6,1009.6,571.6L1009.6,571.6z M1009.6,571.6"/>
		<path class="st6" d="M1034.1,508.6c-14.2-5.5-23.5-15.9-20.7-23.1c2.5-6.4,13.5-8.2,25.7-4.7c1.9,0.5,3.6-1.3,3-3.1
			c-6.3-18.2-19.1-32.9-36.9-39.9c-17.8-7-37.2-4.8-54.1,4.3c-1.7,0.9-1.7,3.4,0,4.3c0.8,0.4,1.7,0.9,2.5,1.3
			c10.1-2.8,20.7-2.7,30.6,1.2c4.4,1.7,8.5,4.1,12.1,7c9,7.2,7.3,21-2.7,26.7c-1.4,0.8-3.3,3.4-3.5,4.8c-1.1,10.6,7.9,12.6,14,19
			c2.9,3.1,3.5,7.4,1.4,14c-1.4,4.4-6.7,7.5-11.9,8.7c-11.5,2.7-19.4,3.7-22.4,8.9c-2.7,4.7-2.7,11.6-0.2,17.5
			c1.8,4.5-0.8,9.5-5.5,10.4c-8.6,1.6-17.5,1-25.9-2.3c-13.7-5.3-23.5-16.6-28.4-30.6c0,0,0,0,0,0c-1.8-0.7-3.7,0.8-3.3,2.7
			c4.5,22.9,18.6,42.1,39.7,50.3c21.1,8.2,44.5,3.7,63.3-10.1c1.6-1.1,1.2-3.5-0.6-4.2c-0.2-0.1-0.3-0.1-0.5-0.2
			c-10.2-4-17.9-10.4-20.3-16.5c-0.9-2.4-1.2-4.4-0.3-6.7c2.8-7.2,16.6-8.6,30.9-3c3.9,1.5,7.5,3.4,10.5,5.5
			c1.2,0.8,2.8,0.5,3.5-0.7c2.5-4.2,4.6-8.6,6.5-13.3c3-7.6,4.8-15.2,5.7-22.8c0.1-1.3-0.7-2.4-2-2.7
			C1040.8,510.8,1037.5,509.9,1034.1,508.6L1034.1,508.6z M1034.1,508.6"/>
		<path class="st10" d="M995.6,725.4H866.2c-3.9,0-7.1-3.2-7.1-7.1V704c0-3.9,3.2-7.1,7.1-7.1h129.4c3.9,0,7.1,3.2,7.1,7.1v14.2
			C1002.7,722.2,999.5,725.4,995.6,725.4L995.6,725.4z M995.6,725.4"/>
		<path class="st1" d="M962.2,507.8c-5,0-9.1-4.1-9.1-9.1c0-5,4.1-9.1,9.1-9.1c1.6,0,5.6-1.3,6.8-2.2c3.7-3.3,9.4-2.9,12.7,0.8
			c3.3,3.7,3,9.5-0.7,12.8C976.6,505.1,967.7,507.8,962.2,507.8L962.2,507.8z M969,487.5C969,487.5,969,487.5,969,487.5
			C969,487.5,969,487.5,969,487.5L969,487.5z M969,487.5"/>
		<path class="st1" d="M820.2,595.9c-1.7,0-3.4-0.5-4.9-1.5c-4.2-2.7-5.4-8.4-2.7-12.6c0.9-1.3,2-5.4,1.9-6.9
			c-0.7-4.9,2.7-9.5,7.6-10.3c5-0.8,9.6,2.6,10.4,7.6c0.9,6-1.6,14.9-4.6,19.5C826.1,594.4,823.2,595.9,820.2,595.9L820.2,595.9z
			 M814.5,575C814.5,575,814.5,575,814.5,575C814.5,575,814.5,575,814.5,575L814.5,575z M814.5,575"/>
		<path class="st1" d="M1001.3,639.9c-3.2,0-6.3-1.7-8-4.7c-2.4-4.4-0.8-9.9,3.6-12.3l0.3-0.2c0.7-0.4,1.1-0.6,1.8-0.8l0.4-0.1
			c4.7-1.8,9.9,0.5,11.8,5.2c1.8,4.7-0.5,9.9-5.2,11.8l-0.3,0.2C1004.3,639.5,1002.8,639.9,1001.3,639.9L1001.3,639.9z
			 M1006.3,638.4L1006.3,638.4L1006.3,638.4L1006.3,638.4z M1006.3,638.4"/>
		<path class="st1" d="M980.5,656.7c-2.2,0-4.5-0.8-6.3-2.5c-3.6-3.5-3.8-9.2-0.3-12.8c2-2.1,2.4-2.5,4.6-4.5
			c3.7-3.4,9.4-3.1,12.8,0.5c3.4,3.7,3.1,9.4-0.5,12.8c-1.9,1.7-1.9,1.8-3.7,3.6C985.3,655.7,982.9,656.7,980.5,656.7L980.5,656.7z
			 M980.5,656.7"/>
	</g>
</g>
</svg>
