<?xml version="1.0" encoding="utf-8"?>
<!-- Generator: Adobe Illustrator 22.1.0, SVG Export Plug-In . SVG Version: 6.00 Build 0)  -->
<svg version="1.1" id="Layer_1" xmlns="http://www.w3.org/2000/svg" xmlns:xlink="http://www.w3.org/1999/xlink" x="0px" y="0px"
	 viewBox="0 0 1920 1280" style="enable-background:new 0 0 1920 1280;" xml:space="preserve">
<style type="text/css">
	.st0{fill:#C7EDE6;}
	.st1{fill:#FFFFFF;}
	.st2{fill:#FDFCEF;}
	.st3{fill:#472B29;}
	.st4{fill:#518699;}
	.st5{fill:#D49C8D;}
	.st6{fill:#C7758D;}
	.st7{fill:#78EAC4;}
</style>
<g>
	<g>
		<path class="st0" d="M1207.7,691.3c8.7-16.5,13.6-35.2,13.6-55.1c0-50.6-31.8-93.6-76.4-110.6c0-0.1,0-0.1,0-0.2
			c0-88.6-71.8-160.4-160.4-160.4c-74.7,0-137.4,51.2-155.2,120.4c-11.3-3.7-23.3-5.8-35.8-5.8c-58.8,0-107.1,44.3-113.7,101.2
			c-39.8,8.4-69.6,43.7-69.6,85.9c0,48.5,39.3,87.8,87.8,87.8c1.4,0,2.7-0.1,4-0.2c0,1.3-0.2,2.6-0.2,4
			c0,86.5,70.1,156.6,156.6,156.6c49.2,0,93-22.7,121.7-58.2c16.6,17,39.8,27.6,65.4,27.6c35.5,0,66.3-20.2,81.5-49.8
			c8,2.6,16.6,4,25.5,4c46.4,0,84-37.6,84-84C1236.6,729.3,1225.3,706.7,1207.7,691.3z"/>
		<path class="st1" d="M689.7,594.2H614c-2.1,0-3.8-1.7-3.8-3.8s1.7-3.8,3.8-3.8h75.7c2.1,0,3.8,1.7,3.8,3.8
			S691.8,594.2,689.7,594.2z"/>
		<path class="st1" d="M713.3,594.2h-7.6c-2.1,0-3.8-1.7-3.8-3.8s1.7-3.8,3.8-3.8h7.6c2.1,0,3.8,1.7,3.8,3.8
			S715.4,594.2,713.3,594.2z"/>
		<path class="st1" d="M751.4,609.4h-68.7c-2.1,0-3.8-1.7-3.8-3.8s1.7-3.8,3.8-3.8h68.7c2.1,0,3.8,1.7,3.8,3.8
			S753.5,609.4,751.4,609.4z"/>
		<path class="st1" d="M667.5,609.4h-7.6c-2.1,0-3.8-1.7-3.8-3.8s1.7-3.8,3.8-3.8h7.6c2.1,0,3.8,1.7,3.8,3.8
			S669.6,609.4,667.5,609.4z"/>
		<path class="st1" d="M644.6,609.4h-15.3c-2.1,0-3.8-1.7-3.8-3.8s1.7-3.8,3.8-3.8h15.3c2.1,0,3.8,1.7,3.8,3.8
			S646.7,609.4,644.6,609.4z"/>
		<path class="st1" d="M690.4,624.7h-15.3c-2.1,0-3.8-1.7-3.8-3.8s1.7-3.8,3.8-3.8h15.3c2.1,0,3.8,1.7,3.8,3.8
			S692.5,624.7,690.4,624.7z"/>
		<path class="st1" d="M713.3,556c-1.4,0-6.3,0-7.6,0c-2.1,0-3.8,1.7-3.8,3.8s1.7,3.8,3.8,3.8c1.4,0,6.3,0,7.6,0
			c2.1,0,3.8-1.7,3.8-3.8S715.4,556,713.3,556z"/>
		<path class="st1" d="M713.3,571.3c-1.4,0-36.8,0-38.2,0c-2.1,0-3.8,1.7-3.8,3.8s1.7,3.8,3.8,3.8c1.4,0,36.8,0,38.2,0
			c2.1,0,3.8-1.7,3.8-3.8S715.4,571.3,713.3,571.3z"/>
		<path class="st1" d="M751.5,586.5c-1.4,0-21.6,0-22.9,0c-2.1,0-3.8,1.7-3.8,3.8s1.7,3.8,3.8,3.8c1.4,0,21.6,0,22.9,0
			c2.1,0,3.8-1.7,3.8-3.8S753.6,586.5,751.5,586.5z"/>
		<path class="st1" d="M1186.9,754.6h-76.4c-2.1,0-3.8-1.7-3.8-3.8c0-2.1,1.7-3.8,3.8-3.8h76.4c2.1,0,3.8,1.7,3.8,3.8
			C1190.7,752.9,1189,754.6,1186.9,754.6z"/>
		<path class="st1" d="M1217.5,754.6h-15.3c-2.1,0-3.8-1.7-3.8-3.8c0-2.1,1.7-3.8,3.8-3.8h15.3c2.1,0,3.8,1.7,3.8,3.8
			C1221.3,752.9,1219.6,754.6,1217.5,754.6z"/>
		<path class="st1" d="M1255.7,769.9h-76.4c-2.1,0-3.8-1.7-3.8-3.8s1.7-3.8,3.8-3.8h76.4c2.1,0,3.8,1.7,3.8,3.8
			S1257.8,769.9,1255.7,769.9z"/>
		<path class="st1" d="M1164,769.9h-7.6c-2.1,0-3.8-1.7-3.8-3.8s1.7-3.8,3.8-3.8h7.6c2.1,0,3.8,1.7,3.8,3.8S1166.1,769.9,1164,769.9
			z"/>
		<path class="st1" d="M1140.9,769.9h-15c-2.1,0-3.8-1.7-3.8-3.8s1.7-3.8,3.8-3.8h15c2.1,0,3.8,1.7,3.8,3.8S1143,769.9,1140.9,769.9
			z"/>
		<path class="st1" d="M1209.8,739.3h-38.2c-2.1,0-3.8-1.7-3.8-3.8c0-2.1,1.7-3.8,3.8-3.8h38.2c2.1,0,3.8,1.7,3.8,3.8
			C1213.7,737.6,1211.9,739.3,1209.8,739.3z"/>
		<path class="st1" d="M1186.9,785.1h-15.3c-2.1,0-3.8-1.7-3.8-3.8s1.7-3.8,3.8-3.8h15.3c2.1,0,3.8,1.7,3.8,3.8
			S1189,785.1,1186.9,785.1z"/>
		<path class="st2" d="M1098.1,575.1c0,0-27.8,0-46.8,0c-19,0-34.4-15.4-34.4-34.4c0-17.8,13.6-32.3,31-34c-0.2-1.4-0.4-2.7-0.4-4.2
			c0-19,15.4-34.4,34.4-34.4c11,0,20.6,5.2,26.9,13.3c1.1-20.1,17.6-36.2,38-36.2c21.1,0,38.2,17.1,38.2,38.2c0,3.4-0.6,6.6-1.4,9.8
			c4.9-5.9,12.2-9.8,20.5-9.8c13.6,0,24.7,10.2,26.4,23.3c1.4-0.2,2.7-0.4,4.2-0.4c19,0,34.4,15.4,34.4,34.4
			c0,19-15.4,34.4-34.4,34.4c-19,0-72.6,0-72.6,0H1121v3.8h-22.9V575.1z"/>
		<path class="st3" d="M1146.8,441.4c23.2,0,42,18.8,42,42c0,0.1,0,0.2,0,0.4c4.6-2.7,9.9-4.2,15.3-4.2c14,0,26.1,9.6,29.5,23
			c0.4,0,0.7,0,1.1,0c21.1,0,38.2,17.1,38.2,38.2s-17.1,38.2-38.2,38.2H1121c-2.1,0-3.8-1.7-3.8-3.8s1.7-3.8,3.8-3.8h113.6
			c16.9,0,30.6-13.7,30.6-30.6c0-16.9-13.7-30.6-30.6-30.6c-0.9,0-1.8,0.1-2.6,0.2l-1.1,0.1c-0.2,0-0.3,0-0.5,0
			c-1.9,0-3.5-1.4-3.8-3.3c-1.5-11.4-11.2-20-22.6-20c-6.8,0-13.2,3.1-17.6,8.4c-0.7,0.9-1.8,1.4-2.9,1.4c-0.6,0-1.2-0.1-1.7-0.4
			c-1.6-0.8-2.4-2.6-1.9-4.4c0.9-3.3,1.3-6.1,1.3-8.8c0-19-15.4-34.4-34.4-34.4c-18.2,0-33.2,14.3-34.2,32.6c-0.1,1.6-1.1,3-2.7,3.4
			c-0.4,0.1-0.8,0.2-1.2,0.2c-1.1,0-2.3-0.5-3-1.5c-5.9-7.5-14.6-11.8-23.9-11.8c-16.9,0-30.6,13.7-30.6,30.6c0,0.9,0.1,1.8,0.2,2.6
			l0.1,1.1c0.1,1-0.2,2-0.8,2.8c-0.6,0.8-1.6,1.3-2.6,1.4c-15.7,1.6-27.5,14.6-27.5,30.2c0,16.9,13.7,30.6,30.6,30.6h46.8
			c2.1,0,3.8,1.7,3.8,3.8s-1.7,3.8-3.8,3.8h-46.8c-21.1,0-38.2-17.1-38.2-38.2c0-18.3,12.9-33.7,30.6-37.3c0-0.3,0-0.6,0-0.9
			c0-21.1,17.1-38.2,38.2-38.2c9,0,17.5,3.2,24.3,8.9C1110.8,454.8,1127.3,441.4,1146.8,441.4L1146.8,441.4z"/>
		<path class="st3" d="M1158.3,494.9c10.7,0,19.9,7.6,22.3,17.9c2.8-1.7,6-2.6,9.3-2.6c9.2,0,16.8,6.9,18,15.8
			c1.6-0.4,3-0.5,4.5-0.5c11.7,0,21.5,9.2,22.3,20.9c0.1,1.1-0.7,2-1.8,2c0,0-0.1,0-0.1,0c-1,0-1.8-0.8-1.9-1.8
			c-0.7-9.7-8.8-17.3-18.5-17.3c-1.7,0-3.6,0.3-5.6,1c-0.2,0.1-0.3,0.1-0.5,0.1c-0.4,0-0.8-0.2-1.2-0.4c-0.5-0.4-0.8-1-0.8-1.6
			c0-7.9-6.4-14.3-14.3-14.3c-3.4,0-6.8,1.3-9.4,3.6c-0.4,0.3-0.8,0.5-1.3,0.5c-0.2,0-0.5,0-0.7-0.1c-0.7-0.3-1.1-0.9-1.2-1.6
			c-0.8-9.9-9.1-17.6-18.9-17.6c-1.6,0-3.2,0.3-5.2,0.8c-0.2,0.1-0.4,0.1-0.5,0.1c-0.8,0-1.6-0.6-1.8-1.4c-0.3-1,0.3-2.1,1.3-2.4
			C1154.3,495.2,1156.3,494.9,1158.3,494.9L1158.3,494.9z"/>
		<path class="st2" d="M658.9,850.1c0,0-12,0-26.7,0c-14.8,0-26.7-12-26.7-26.7c0-13.6,10.2-24.7,23.3-26.4
			c-0.2-1.4-0.4-2.7-0.4-4.2c0-14.8,12-26.7,26.7-26.7c7.9,0,14.9,3.5,19.8,8.9c2.9-13.8,15.2-24.2,29.9-24.2
			c16.9,0,30.6,13.7,30.6,30.6c0,1.5-0.2,2.9-0.4,4.3c3.3-2.6,7.4-4.3,11.9-4.3c9.4,0,17.1,6.8,18.8,15.7c1.4-0.2,2.7-0.4,4.2-0.4
			c14.8,0,26.7,12,26.7,26.7c0,14.8-12,26.7-26.7,26.7s-57.3,0-57.3,0v3.8h-53.5V850.1z"/>
		<path class="st3" d="M645.5,815.7c1.1,0,1.9-0.9,1.9-1.9c0-9.3-7.6-16.9-16.9-16.9c-0.3,0.1-5.6,0-9.5,1c-1,0.3-1.6,1.3-1.3,2.3
			c0.3,1,1.3,1.6,2.3,1.3c3.4-0.9,8.4-0.9,8.5-0.9c7.2,0,13.1,5.9,13.1,13.1C643.6,814.8,644.5,815.7,645.5,815.7z"/>
		<circle class="st3" cx="1313.8" cy="877" r="4.6"/>
		<path class="st3" d="M632.1,853.9h26.7c2.1,0,3.8-1.7,3.8-3.8s-1.7-3.8-3.8-3.8h-26.7c-12.6,0-22.9-10.3-22.9-22.9
			c0-11.4,8.6-21.1,20-22.6c1-0.1,1.9-0.7,2.6-1.5c0.6-0.8,0.9-1.9,0.7-2.9c-0.2-1.2-0.4-2.4-0.4-3.6c0-12.6,10.3-22.9,22.9-22.9
			c6.5,0,12.5,2.7,17,7.6c1,1.1,2.5,1.5,3.8,1.1c1.4-0.4,2.5-1.5,2.8-2.9c2.6-12.3,13.6-21.2,26.1-21.2c14.7,0,26.7,12,26.7,26.7
			c0,1.1-0.2,2.1-0.3,3.2c-0.2,1.6,0.5,3.3,1.8,4.1c1.4,0.8,3,0.9,4.2-0.1c2.8-2.2,6.1-3.4,9.5-3.4c7.4,0,13.7,5.3,15,12.6
			c0.4,2,2.3,3.4,4.3,3.1c1.2-0.2,2.4-0.4,3.6-0.4c12.6,0,22.9,10.3,22.9,22.9c0,12.6-10.3,22.9-22.9,22.9h-57.3
			c-2.1,0-3.8,1.7-3.8,3.8s1.7,3.8,3.8,3.8h57.3c16.9,0,30.6-13.7,30.6-30.6c0-16.9-13.7-30.6-30.6-30.6c-0.5,0-0.9,0-1.3,0
			c-3.2-9.1-11.7-15.3-21.6-15.3c-2.7,0-5.3,0.5-7.7,1.4c-1.3-17.8-16.2-31.9-34.3-31.9c-14,0-26.5,8.6-31.7,21.2
			c-5.2-3.8-11.5-5.9-17.9-5.9c-16.9,0-30.6,13.7-30.6,30.6c0,0.4,0,0.7,0,1.1c-13.3,3.4-22.9,15.5-22.9,29.5
			C601.6,840.2,615.3,853.9,632.1,853.9z"/>
		<path class="st3" d="M1286.2,872.4c1.5,0,7.7,0,9.2,0c2.5,0,4.6,2.1,4.6,4.6s-2.1,4.6-4.6,4.6c-1.5,0-7.7,0-9.2,0
			c-2.5,0-4.6-2.1-4.6-4.6S1283.7,872.4,1286.2,872.4z"/>
	</g>
	<g>
		<path class="st4" d="M925.3,787.5c-9.6,0-17.5-7.8-17.5-17.5V509.4c0-9.6,7.8-17.5,17.5-17.5c9.6,0,17.5,7.8,17.5,17.5V770
			C942.8,779.7,935,787.5,925.3,787.5L925.3,787.5z M925.3,787.5"/>
		<path class="st5" d="M913.2,842c-25.2,0-45.5-20.4-45.5-45.5v-55.7c0-8.5,6.9-15.3,15.3-15.3h85.9c8.5,0,15.3,6.9,15.3,15.3v55.7
			c0,25.2-20.4,45.5-45.5,45.5H913.2L913.2,842z M913.2,842"/>
		<path class="st6" d="M882.9,725.5c-8.5,0-15.3,6.9-15.3,15.3v55.7c0,25.2,20.4,45.5,45.5,45.5h25.4c25.2,0,45.5-20.4,45.5-45.5
			v-23.7c0,16.8-13.6,30.3-30.3,30.3h-16.9c-16.8,0-30.3-13.6-30.3-30.3v-37.1c0-5.6,4.6-10.2,10.2-10.2H882.9L882.9,725.5z
			 M882.9,725.5"/>
		<path class="st7" d="M1006.1,513.5c-12.1,21.9-48.9,56.1-66.5,38.6c-17.5-17.5-36.3-51.2-9.9-77.6c26.5-26.5,55.4-36.7,70.7-30.8
			C1023.6,452.6,1024.2,480.8,1006.1,513.5L1006.1,513.5z M1006.1,513.5"/>
		<path class="st7" d="M988.9,675.8c-16.9,5.9-52.8,6.5-53.8-11.2c-1-17.7,5.1-44.6,31.8-46s47,6.9,52.3,17.3
			C1027.3,651.7,1014.2,667,988.9,675.8L988.9,675.8z M988.9,675.8"/>
		<path class="st7" d="M875.7,553.7c22.2,4,62.1,25.5,52.5,45.1c-9.6,19.6-32.5,44.9-62.9,30c-30.3-14.8-47.6-36.3-47.2-50.8
			C818.9,556,842.6,547.6,875.7,553.7L875.7,553.7z M875.7,553.7"/>
		<path class="st1" d="M947.1,748.4c8.6-1.1,16.5,5.1,17.5,13.7c1.1,8.6-5.1,16.5-13.7,17.5c-8.6,1.1-16.5-5.1-17.5-13.7
			C932.3,757.3,938.5,749.4,947.1,748.4L947.1,748.4z M947.1,748.4"/>
	</g>
</g>
</svg>
