<?xml version="1.0" encoding="iso-8859-1"?>
<!-- Generator: Adobe Illustrator 19.0.0, SVG Export Plug-In . SVG Version: 6.00 Build 0)  -->
<svg version="1.1" id="Layer_1" xmlns="http://www.w3.org/2000/svg" xmlns:xlink="http://www.w3.org/1999/xlink" x="0px" y="0px"
	 viewBox="0 0 511.999 511.999" style="enable-background:new 0 0 511.999 511.999;" xml:space="preserve">
<path style="fill:#3FC8F2;" d="M247.745,172.702L247.745,172.702V68.29l0,0c-120.28,0-217.785,97.506-217.785,217.785
	c0,41.532,11.629,80.345,31.803,113.369l88.599-54.007c-10.424-17.189-16.426-37.357-16.426-58.927
	C133.938,223.656,184.89,172.702,247.745,172.702z"/>
<path style="fill:#894BA2;" d="M150.362,345.437l-88.599,54.007c34.036,55.716,92.406,94.936,160.334,102.906l12.195-102.829
	C198.688,395.328,168.112,374.707,150.362,345.437z"/>
<path style="fill:#F77935;" d="M343.482,224.955c11.433,17.746,18.07,38.875,18.07,61.555c0,62.855-50.953,113.807-113.807,113.807
	c-4.553,0-9.04-0.276-13.454-0.795L222.097,502.35c8.413,0.987,16.968,1.51,25.647,1.51c120.279,0,217.785-97.506,217.785-217.785
	c0-43.149-12.551-83.368-34.198-117.205L343.482,224.955z"/>
<path style="fill:#D9510D;" d="M431.332,168.87l-23.715,15.14c16.183,30.446,25.36,65.182,25.36,102.065
	c0,114.733-88.721,208.741-201.298,217.168c5.307,0.392,10.659,0.617,16.067,0.617c120.279,0,217.785-97.506,217.785-217.785
	C465.53,242.926,452.979,202.708,431.332,168.87z"/>
<path style="fill:#FFDB56;" d="M482.037,136.499C432.656,59.309,346.177,8.139,247.745,8.139v277.937L482.037,136.499z"/>
<path style="fill:#FBA806;" d="M247.745,8.139v0.653c78.742,13.312,146.228,59.733,187.632,124.452L247.745,253.031v33.045
	l234.293-149.577C432.656,59.309,346.178,8.139,247.745,8.139z"/>
<path style="fill:#763794;" d="M150.362,345.437l-22.952,13.991c21.286,25.767,53.482,42.187,89.514,42.187
	c5.87,0,11.635-0.439,17.27-1.28l0.097-0.813C198.688,395.328,168.113,374.707,150.362,345.437z"/>
<path style="fill:#0DAACE;" d="M244.273,172.76c-8.771-2.119-17.926-3.25-27.349-3.25c-64.094,0-116.052,51.959-116.052,116.052
	c0,28.063,9.96,53.798,26.539,73.865l22.952-13.991c-10.424-17.189-16.426-37.357-16.426-58.927
	C133.938,224.817,183.026,174.596,244.273,172.76z"/>
<path d="M488.893,132.112c-25.4-39.703-60.544-72.844-101.633-95.842C344.864,12.542,296.62,0,247.745,0
	c-4.496,0-8.139,3.644-8.139,8.139V60.3c-44.373,1.564-86.71,15.903-122.906,41.719c-3.66,2.61-4.511,7.693-1.901,11.352
	c2.61,3.658,7.691,4.512,11.353,1.9c33.421-23.836,72.491-37.132,113.455-38.688v88.246c-39.534,2.579-74.962,23.868-95.91,58.052
	c-2.348,3.833-1.146,8.843,2.687,11.191c1.327,0.813,2.795,1.2,4.245,1.2c2.738,0,5.41-1.381,6.946-3.888
	c17.964-29.315,48.212-47.674,82.032-50.225v104.917c0,2.972,1.62,5.709,4.228,7.137c1.221,0.67,2.567,1.002,3.911,1.002
	c1.525,0,3.048-0.429,4.38-1.278l88.636-56.587c8.295,15.351,12.653,32.532,12.653,50.161c0,58.267-47.403,105.669-105.669,105.669
	c-4.131,0-8.337-0.249-12.502-0.74c-32.486-3.826-60.886-22.131-77.922-50.222c-9.974-16.447-15.246-35.365-15.246-54.706
	c0-9.704,1.314-19.315,3.904-28.565c1.212-4.329-1.313-8.82-5.642-10.032c-4.32-1.21-8.819,1.315-10.031,5.642
	c-2.992,10.679-4.508,21.767-4.508,32.956c0,19.591,4.691,38.811,13.628,56.062l-74.82,45.608
	c-17.365-31.095-26.509-66.222-26.509-102.104c0-57.289,22.675-110.789,63.846-150.645c3.229-3.126,3.313-8.279,0.187-11.508
	c-3.127-3.229-8.276-3.314-11.508-0.187c-44.367,42.95-68.801,100.603-68.801,162.34c0,41.605,11.41,82.275,32.997,117.612
	c17.542,28.717,41.738,53.594,69.969,71.939c28.869,18.761,62.191,30.797,96.363,34.807c8.858,1.04,17.806,1.566,26.597,1.566
	c124.575,0,225.923-101.349,225.923-225.924c0-40.531-10.769-79.993-31.215-114.649l43.964-28.068c1.821-1.162,3.103-3,3.568-5.11
	C490.45,136.139,490.057,133.932,488.893,132.112z M73.093,402.07l74.766-45.576c18.397,26.309,45.96,44.071,77.421,49.894
	l-10.29,86.773c-28.861-4.552-56.828-15.255-81.336-31.181C109.728,446.428,88.924,425.826,73.093,402.07z M428.725,180.191
	c18.779,32.032,28.666,68.464,28.666,105.885c0,115.6-94.047,209.647-209.646,209.647c-5.483,0-11.037-0.221-16.587-0.66
	l10.289-86.771c2.107,0.11,4.21,0.164,6.298,0.164c67.242,0,121.946-54.705,121.946-121.946c0-20.743-5.223-40.956-15.171-58.945
	l60.845-38.845L428.725,180.191z M426.954,162.009c-0.001,0-0.002,0.001-0.003,0.001l-87.85,56.084
	c-0.004,0.002-0.008,0.005-0.012,0.009l-83.207,53.121v-98.522V68.29V16.398c86.618,2.567,165.907,46.009,214.806,117.69
	L426.954,162.009z"/>
<g>
</g>
<g>
</g>
<g>
</g>
<g>
</g>
<g>
</g>
<g>
</g>
<g>
</g>
<g>
</g>
<g>
</g>
<g>
</g>
<g>
</g>
<g>
</g>
<g>
</g>
<g>
</g>
<g>
</g>
</svg>
