<?xml version="1.0" encoding="utf-8"?>
<!-- Generator: Adobe Illustrator 22.1.0, SVG Export Plug-In . SVG Version: 6.00 Build 0)  -->
<svg version="1.1" id="Layer_1" xmlns="http://www.w3.org/2000/svg" xmlns:xlink="http://www.w3.org/1999/xlink" x="0px" y="0px"
	 viewBox="0 0 1920 1280" style="enable-background:new 0 0 1920 1280;" xml:space="preserve">
<style type="text/css">
	.st0{fill:#C7EDE6;}
	.st1{fill:#FFFFFF;}
	.st2{fill:#FDFCEF;}
	.st3{fill:#472B29;}
	.st4{fill:#FEF2A8;}
	.st5{fill:#EF8BBD;}
	.st6{fill:#B74A96;}
	.st7{fill:#B2E7F1;}
	.st8{fill:#95CDE6;}
	.st9{fill:#CFA1C7;}
	.st10{fill:#EEB6A8;}
	.st11{fill:#E068BD;}
	.st12{fill:#FFBFFC;}
	.st13{fill:#A7ADF1;}
	.st14{fill:#78EAC4;}
</style>
<g>
	<g>
		<path class="st0" d="M1202,683.4c8.2-16.6,12.6-35.3,12.1-55.1c-1.3-50.3-34-92.2-78.8-107.9c0-0.1,0-0.1,0-0.2
			c-2.3-88-75.6-157.5-163.6-155.2c-74.3,2-135.2,54.5-151.1,123.7c-11.3-3.4-23.3-5.1-35.7-4.8c-58.4,1.5-105.3,46.8-110.4,103.6
			c-39.3,9.4-68,45.2-66.9,87.2c1.3,48.2,41.4,86.3,89.6,85c1.3,0,2.7-0.2,4-0.3c0,1.3-0.1,2.6-0.1,4c2.3,86,73.8,153.8,159.7,151.5
			c48.9-1.3,91.8-25,119.4-61c17,16.5,40.2,26.4,65.8,25.7c35.3-0.9,65.3-21.9,79.7-51.6c8.1,2.3,16.6,3.5,25.4,3.3
			c46.1-1.2,82.5-39.6,81.3-85.7C1231.7,720.5,1219.9,698.3,1202,683.4z"/>
		<path class="st1" d="M684.6,600.5l-75.2,2c-2.1,0.1-3.8-1.6-3.9-3.7s1.6-3.8,3.7-3.9l75.2-2c2.1-0.1,3.8,1.6,3.9,3.7
			C688.4,598.7,686.7,600.5,684.6,600.5z"/>
		<path class="st1" d="M708.1,599.9l-7.6,0.2c-2.1,0.1-3.8-1.6-3.9-3.7c-0.1-2.1,1.6-3.8,3.7-3.9l7.6-0.2c2.1-0.1,3.8,1.6,3.9,3.7
			C711.9,598.1,710.2,599.9,708.1,599.9z"/>
		<path class="st1" d="M746.4,614.1l-68.3,1.8c-2.1,0.1-3.8-1.6-3.9-3.7c-0.1-2.1,1.6-3.8,3.7-3.9l68.3-1.8c2.1-0.1,3.8,1.6,3.9,3.7
			C750.2,612.3,748.5,614,746.4,614.1z"/>
		<path class="st1" d="M663,616.3l-7.6,0.2c-2.1,0.1-3.8-1.6-3.9-3.7c-0.1-2.1,1.6-3.8,3.7-3.9l7.6-0.2c2.1-0.1,3.8,1.6,3.9,3.7
			S665.1,616.2,663,616.3z"/>
		<path class="st1" d="M640.2,616.9l-15.2,0.4c-2.1,0.1-3.8-1.6-3.9-3.7c-0.1-2.1,1.6-3.8,3.7-3.9l15.2-0.4c2.1-0.1,3.8,1.6,3.9,3.7
			S642.3,616.8,640.2,616.9z"/>
		<path class="st1" d="M686.2,630.9l-15.2,0.4c-2.1,0.1-3.8-1.6-3.9-3.7c-0.1-2.1,1.6-3.8,3.7-3.9l15.2-0.4c2.1-0.1,3.8,1.6,3.9,3.7
			C689.9,629.1,688.3,630.8,686.2,630.9z"/>
		<path class="st1" d="M707.1,561.9c-1.3,0-6.2,0.2-7.6,0.2c-2.1,0.1-3.8,1.8-3.7,3.9c0.1,2.1,1.8,3.8,3.9,3.7
			c1.3,0,6.2-0.2,7.6-0.2c2.1-0.1,3.8-1.8,3.7-3.9C711,563.5,709.2,561.9,707.1,561.9z"/>
		<path class="st1" d="M707.5,577.1c-1.3,0-36.6,1-38,1c-2.1,0.1-3.8,1.8-3.7,3.9c0.1,2.1,1.8,3.8,3.9,3.7c1.3,0,36.6-1,38-1
			c2.1-0.1,3.8-1.8,3.7-3.9C711.4,578.7,709.6,577.1,707.5,577.1z"/>
		<path class="st1" d="M745.9,591.3c-1.3,0-21.4,0.6-22.8,0.6c-2.1,0.1-3.8,1.8-3.7,3.9s1.8,3.8,3.9,3.7c1.3,0,21.4-0.6,22.8-0.6
			c2.1-0.1,3.8-1.8,3.7-3.9C749.7,592.9,748,591.3,745.9,591.3z"/>
		<path class="st1" d="M1183,746.9l-75.9,2c-2.1,0.1-3.8-1.6-3.9-3.7c-0.1-2.1,1.6-3.8,3.7-3.9l75.9-2c2.1-0.1,3.8,1.6,3.9,3.7
			C1186.8,745.1,1185.1,746.9,1183,746.9z"/>
		<path class="st1" d="M1213.4,746.1l-15.2,0.4c-2.1,0.1-3.8-1.6-3.9-3.7c-0.1-2.1,1.6-3.8,3.7-3.9l15.2-0.4
			c2.1-0.1,3.8,1.6,3.9,3.7C1217.1,744.3,1215.5,746.1,1213.4,746.1z"/>
		<path class="st1" d="M1251.7,760.3l-75.9,2c-2.1,0.1-3.8-1.6-3.9-3.7s1.6-3.8,3.7-3.9l75.9-2c2.1-0.1,3.8,1.6,3.9,3.7
			C1255.5,758.5,1253.8,760.2,1251.7,760.3z"/>
		<path class="st1" d="M1160.6,762.7l-7.6,0.2c-2.1,0.1-3.8-1.6-3.9-3.7c-0.1-2.1,1.6-3.8,3.7-3.9l7.6-0.2c2.1-0.1,3.8,1.6,3.9,3.7
			C1164.4,760.9,1162.7,762.6,1160.6,762.7z"/>
		<path class="st1" d="M1137.6,763.3l-15,0.4c-2.1,0.1-3.8-1.6-3.9-3.7c-0.1-2.1,1.6-3.8,3.7-3.9l15-0.4c2.1-0.1,3.8,1.6,3.9,3.7
			C1141.4,761.5,1139.7,763.3,1137.6,763.3z"/>
		<path class="st1" d="M1205.4,731.1l-38,1c-2.1,0.1-3.8-1.6-3.9-3.7c-0.1-2.1,1.6-3.8,3.7-3.9l38-1c2.1-0.1,3.8,1.6,3.9,3.7
			C1209.1,729.3,1207.5,731.1,1205.4,731.1z"/>
		<path class="st1" d="M1183.8,777.3l-15.2,0.4c-2.1,0.1-3.8-1.6-3.9-3.7c-0.1-2.1,1.6-3.8,3.7-3.9l15.2-0.4
			c2.1-0.1,3.8,1.6,3.9,3.7C1187.6,775.5,1185.9,777.2,1183.8,777.3z"/>
		<path class="st2" d="M1090.1,570.8c0,0-27.6,0.7-46.5,1.2c-18.9,0.5-34.6-14.4-35.1-33.3c-0.5-17.7,12.7-32.5,29.9-34.6
			c-0.2-1.4-0.5-2.7-0.5-4.1c-0.5-18.9,14.4-34.6,33.3-35.1c10.9-0.3,20.7,4.7,27.1,12.5c0.5-20,16.5-36.4,36.8-36.9
			c21-0.6,38.4,16,39,37c0.1,3.4-0.4,6.6-1.2,9.8c4.7-6,11.9-10.1,20.1-10.3c13.5-0.4,24.8,9.5,26.8,22.5c1.4-0.2,2.7-0.5,4.1-0.5
			c18.9-0.5,34.6,14.4,35.1,33.3c0.5,18.9-14.4,34.6-33.3,35.1c-18.9,0.5-72.1,1.9-72.1,1.9l-40.8,1.1l0.1,3.8l-22.8,0.6
			L1090.1,570.8z"/>
		<path class="st3" d="M1134.9,436.7c23-0.6,42.2,17.6,42.9,40.7c0,0.1,0,0.2,0,0.4c4.5-2.8,9.7-4.4,15.1-4.6
			c13.9-0.4,26.1,8.9,29.9,22c0.4,0,0.7-0.1,1.1-0.1c20.9-0.6,38.4,16,39,37c0.6,20.9-16,38.4-37,39l-112.9,3
			c-2.1,0.1-3.8-1.6-3.9-3.7c-0.1-2.1,1.6-3.8,3.7-3.9l112.9-3c16.7-0.4,30-14.4,29.6-31.2c-0.4-16.7-14.4-30-31.2-29.6
			c-0.9,0-1.7,0.2-2.6,0.3l-1.1,0.2c-0.2,0-0.3,0-0.5,0c-1.9,0-3.5-1.3-3.8-3.2c-1.7-11.3-11.6-19.6-23-19.3
			c-6.7,0.2-13,3.4-17.2,8.8c-0.7,0.9-1.8,1.4-2.9,1.5c-0.6,0-1.2-0.1-1.7-0.4c-1.6-0.8-2.5-2.6-2-4.3c0.8-3.3,1.1-6.1,1.1-8.8
			c-0.5-18.8-16.2-33.8-35.1-33.3c-18.1,0.5-32.6,15.1-33.1,33.3c0,1.6-1.1,3-2.6,3.5c-0.4,0.1-0.8,0.2-1.1,0.2
			c-1.1,0-2.3-0.5-3-1.4c-6.1-7.3-14.8-11.3-24.1-11.1c-16.7,0.4-30,14.4-29.6,31.2c0,0.9,0.2,1.7,0.3,2.6l0.2,1.1
			c0.1,1-0.1,2-0.7,2.9c-0.6,0.8-1.5,1.3-2.5,1.5c-15.6,2-27,15.2-26.6,30.8c0.4,16.7,14.4,30,31.2,29.6l46.5-1.2
			c2.1-0.1,3.8,1.6,3.9,3.7c0.1,2.1-1.6,3.8-3.7,3.9l-46.5,1.2c-20.9,0.6-38.4-16-39-37c-0.5-18.2,11.9-33.8,29.4-37.8
			c0-0.3,0-0.6,0-0.9c-0.6-20.9,16-38.4,37-39c8.9-0.2,17.5,2.7,24.4,8.2C1099.5,451,1115.5,437.2,1134.9,436.7L1134.9,436.7z"/>
		<path class="st3" d="M1147.7,489.6c10.7-0.3,20,7.1,22.6,17.2c2.7-1.8,5.9-2.7,9.1-2.8c9.1-0.2,16.9,6.4,18.3,15.2
			c1.5-0.4,3-0.6,4.4-0.6c11.6-0.3,21.6,8.5,22.7,20.2c0.1,1-0.7,2-1.7,2.1c0,0-0.1,0-0.1,0c-1,0-1.8-0.7-1.9-1.7
			c-0.9-9.6-9.2-17-18.8-16.7c-1.7,0-3.6,0.4-5.6,1.1c-0.2,0.1-0.3,0.1-0.5,0.1c-0.4,0-0.8-0.1-1.2-0.4c-0.5-0.3-0.8-1-0.8-1.6
			c-0.2-7.8-6.8-14.1-14.6-13.9c-3.4,0.1-6.7,1.5-9.3,3.8c-0.3,0.3-0.8,0.5-1.2,0.5c-0.2,0-0.5,0-0.7-0.1c-0.7-0.2-1.1-0.9-1.2-1.6
			c-1-9.8-9.5-17.3-19.3-17c-1.6,0-3.2,0.3-5.2,0.9c-0.2,0.1-0.4,0.1-0.5,0.1c-0.8,0-1.6-0.5-1.9-1.3c-0.3-1,0.2-2.1,1.2-2.4
			C1143.8,490,1145.8,489.6,1147.7,489.6L1147.7,489.6z"/>
		<path class="st2" d="M660.7,855.6c0,0-11.9,0.3-26.6,0.7s-26.9-11.2-27.3-25.9c-0.4-13.5,9.5-24.8,22.5-26.8
			c-0.2-1.4-0.5-2.7-0.5-4.1c-0.4-14.7,11.2-26.9,25.9-27.3c7.8-0.2,14.9,3.1,19.9,8.3c2.6-13.8,14.5-24.4,29-24.8
			c16.8-0.4,30.7,12.8,31.2,29.6c0,1.5-0.2,2.8-0.3,4.2c3.2-2.7,7.2-4.4,11.7-4.5c9.3-0.2,17.2,6.3,19,15.1c1.4-0.2,2.7-0.5,4.1-0.5
			c14.7-0.4,26.9,11.2,27.3,25.9c0.4,14.7-11.2,26.9-25.9,27.3s-56.9,1.5-56.9,1.5l0.1,3.8l-53.1,1.4L660.7,855.6z"/>
		<path class="st3" d="M646.6,821.8c1,0,1.9-0.9,1.8-1.9c-0.2-9.3-8-16.6-17.3-16.4c-0.3,0.1-5.6,0.1-9.4,1.3
			c-1,0.3-1.6,1.4-1.3,2.4c0.3,1,1.4,1.6,2.4,1.3c3.3-1,8.3-1.1,8.4-1.1c7.2-0.2,13.2,5.5,13.4,12.7
			C644.6,821,645.5,821.9,646.6,821.8z"/>
		<circle class="st3" cx="1312.3" cy="865.3" r="4.6"/>
		<path class="st3" d="M634.3,860.1l26.6-0.7c2.1-0.1,3.8-1.8,3.7-3.9s-1.8-3.8-3.9-3.7l-26.6,0.7c-12.6,0.3-23-9.6-23.4-22.2
			c-0.3-11.4,8-21.2,19.3-23c1-0.2,1.9-0.7,2.5-1.6c0.6-0.8,0.8-1.9,0.6-2.9c-0.2-1.2-0.4-2.3-0.5-3.5c-0.3-12.6,9.6-23,22.2-23.4
			c6.5-0.2,12.5,2.4,17,7.1c1,1,2.5,1.4,3.8,1c1.4-0.4,2.4-1.5,2.7-2.9c2.3-12.2,13-21.4,25.4-21.7c14.7-0.4,26.9,11.2,27.3,25.9
			c0,1.1-0.1,2.1-0.2,3.2c-0.2,1.5,0.6,3.3,1.9,4.1c1.4,0.7,3,0.8,4.2-0.2c2.7-2.3,5.9-3.6,9.3-3.6c7.3-0.2,13.7,4.9,15.2,12.1
			c0.4,2,2.3,3.3,4.4,3c1.2-0.2,2.3-0.4,3.5-0.5c12.6-0.3,23,9.6,23.4,22.2s-9.6,23-22.2,23.4l-56.9,1.5c-2.1,0.1-3.8,1.8-3.7,3.9
			c0.1,2.1,1.8,3.8,3.9,3.7l56.9-1.5c16.7-0.4,30-14.4,29.6-31.2c-0.4-16.7-14.4-30-31.2-29.6c-0.4,0-0.9,0-1.3,0.1
			c-3.4-8.9-12.1-14.9-21.9-14.7c-2.6,0.1-5.2,0.6-7.6,1.6c-1.7-17.7-16.9-31.3-34.9-30.8c-13.9,0.4-26.1,9.2-31,21.9
			c-5.3-3.6-11.6-5.6-18-5.4c-16.7,0.4-30,14.4-29.6,31.2c0,0.4,0,0.7,0.1,1.1c-13.1,3.7-22.4,16-22,29.9
			C603.6,847.3,617.5,860.6,634.3,860.1z"/>
		<path class="st3" d="M1284.8,861.4c1.5,0,7.7-0.2,9.1-0.2c2.5-0.1,4.6,1.9,4.7,4.4s-1.9,4.6-4.4,4.7c-1.5,0-7.7,0.2-9.1,0.2
			c-2.5,0.1-4.6-1.9-4.7-4.4S1282.3,861.5,1284.8,861.4z"/>
	</g>
	<g>
		<path class="st4" d="M809.4,616v159.8h272.4V616l-81.9-93.7h-32c0,0-9.7-16.3-22.4-16.3c-12.6,0-24.6,16.3-24.6,16.3h-36.7
			L809.4,616z M809.4,616"/>
		<path class="st5" d="M1113.3,813.1H777.9c-10.3,0-18.7-8.4-18.7-18.7c0-10.3,8.4-18.7,18.7-18.7h335.4c10.3,0,18.7,8.4,18.7,18.7
			C1132,804.8,1123.6,813.1,1113.3,813.1L1113.3,813.1z M1113.3,813.1"/>
		<path class="st5" d="M808,522.3c-6.1,0-11.3,4.2-12.3,9.9l-10.1,70.3c-1.2,7.1,4.7,13.5,12.3,13.5h32.1c7.6,0,14.9-3.1,20-8.5
			l71-85.3H808z M808,522.3"/>
		<path class="st5" d="M948.9,669.2h-6.7c-12.8,0-23.2,10.4-23.2,23.2v64.5h53.1v-64.5C972.2,679.6,961.8,669.2,948.9,669.2
			L948.9,669.2z M948.9,669.2"/>
		<path class="st6" d="M963.2,713.1c0,3.1-2.5,5.6-5.6,5.6c-3.1,0-5.6-2.5-5.6-5.6c0-3.1,2.5-5.6,5.6-5.6
			C960.7,707.5,963.2,710,963.2,713.1L963.2,713.1z M963.2,713.1"/>
		<path class="st7" d="M974.9,592.5v-15.6c0-5.3-4.3-9.6-9.6-9.6l-39.5,0c-5.3,0-9.6,4.3-9.6,9.6v15.6h-6.2V626h71.1v-33.5H974.9z
			 M974.9,592.5"/>
		<path class="st8" d="M945.5,630.9c-2.7,0-4.9-2.2-4.9-4.9v-54c0-2.7,2.2-4.9,4.9-4.9c2.7,0,4.9,2.2,4.9,4.9v54
			C950.4,628.7,948.2,630.9,945.5,630.9L945.5,630.9z M945.5,630.9"/>
		<path class="st9" d="M990.6,597.4h-90.1c-2.7,0-4.9-2.2-4.9-4.9c0-2.7,2.2-4.9,4.9-4.9h90.1c2.7,0,4.9,2.2,4.9,4.9
			C995.6,595.2,993.4,597.4,990.6,597.4L990.6,597.4z M990.6,597.4"/>
		<path class="st9" d="M910.1,630.9c-2.7,0-4.9-2.2-4.9-4.9v-33.5c0-2.7,2.2-4.9,4.9-4.9c2.7,0,4.9,2.2,4.9,4.9V626
			C915,628.7,912.8,630.9,910.1,630.9L910.1,630.9z M910.1,630.9"/>
		<path class="st9" d="M927.6,630.9c-2.7,0-4.9-2.2-4.9-4.9v-33.5c0-2.7,2.2-4.9,4.9-4.9c2.7,0,4.9,2.2,4.9,4.9V626
			C932.6,628.7,930.4,630.9,927.6,630.9L927.6,630.9z M927.6,630.9"/>
		<path class="st9" d="M963.3,630.9c-2.7,0-4.9-2.2-4.9-4.9v-33.5c0-2.7,2.2-4.9,4.9-4.9s4.9,2.2,4.9,4.9V626
			C968.2,628.7,966,630.9,963.3,630.9L963.3,630.9z M963.3,630.9"/>
		<path class="st9" d="M981.1,630.9c-2.7,0-4.9-2.2-4.9-4.9v-33.5c0-2.7,2.2-4.9,4.9-4.9c2.7,0,4.9,2.2,4.9,4.9V626
			C986.1,628.7,983.9,630.9,981.1,630.9L981.1,630.9z M981.1,630.9"/>
		<path class="st1" d="M991.3,643.3h-91.3c-4.8,0-8.6-3.9-8.6-8.6c0-4.8,3.9-8.6,8.6-8.6h91.3c4.8,0,8.6,3.9,8.6,8.6
			C999.9,639.4,996,643.3,991.3,643.3L991.3,643.3z M991.3,643.3"/>
		<path class="st7" d="M874.7,704.7h-24.5c-5.3,0-9.7-4.3-9.7-9.7v-24.5c0-5.3,4.3-9.7,9.7-9.7h24.5c5.3,0,9.7,4.3,9.7,9.7V695
			C884.3,700.3,880,704.7,874.7,704.7L874.7,704.7z M874.7,704.7"/>
		<path class="st7" d="M1041.4,704.6h-24.5c-5.3,0-9.7-4.3-9.7-9.7v-24.5c0-5.3,4.3-9.7,9.7-9.7h24.5c5.3,0,9.7,4.3,9.7,9.7v24.5
			C1051.1,700.3,1046.8,704.6,1041.4,704.6L1041.4,704.6z M1041.4,704.6"/>
		<path class="st10" d="M1025.9,684.7c0,19.7-16,35.7-35.7,35.7H809.4v55.4h272.4V616l-53.1-59.7L1025.9,684.7z M1025.9,684.7"/>
		<rect x="919" y="720.5" class="st11" width="53.1" height="36.5"/>
		<path class="st12" d="M988.8,775.8h-86.4v-11.4c0-6.4,5.2-11.5,11.5-11.5h63.3c6.4,0,11.5,5.2,11.5,11.5L988.8,775.8L988.8,775.8z
			 M988.8,775.8"/>
		<path class="st13" d="M1041.4,660.7h-15l-0.5,24c0,7.3-2.2,14.2-6,19.8h21.6c5.3,0,9.7-4.3,9.7-9.7v-24.5
			C1051.1,665.1,1046.8,660.7,1041.4,660.7L1041.4,660.7z M1041.4,660.7"/>
		<path class="st5" d="M1105.4,602.5l-10.4-70.3c-1-5.7-6.2-9.9-12.3-9.9H967.9l73.2,85.3c5.1,5.4,12.3,8.5,20,8.5h32
			C1100.8,616,1106.6,609.6,1105.4,602.5L1105.4,602.5z M1105.4,602.5"/>
		<path class="st11" d="M1029.2,532.2l-1.3,59.9l13.3,15.5c5.1,5.4,12.3,8.5,20,8.5h32c7.6,0,13.4-6.4,12.2-13.5l-10.4-70.3
			c-1-5.7-6.2-9.9-12.3-9.9h-18.4l-4.8,12.3L1029.2,532.2z M1029.2,532.2"/>
		<path class="st4" d="M1055.8,543.5h-18.1c-4.7,0-8.6-3.8-8.6-8.6V491c0-4.7,3.8-8.6,8.6-8.6h18.1c4.7,0,8.6,3.8,8.6,8.6V535
			C1064.4,539.7,1060.5,543.5,1055.8,543.5L1055.8,543.5z M1055.8,543.5"/>
		<path class="st14" d="M875,775.8c1.3-2.5,2-5.3,2-8.3c0-9.9-8-17.9-17.9-17.9c-0.6,0-1.2,0-1.8,0.1c-3.8-9.9-13.4-17-24.7-17
			c-10.8,0-20.1,6.5-24.2,15.9c-3.7-3.2-8.5-5.1-13.7-5.1c-11.6,0-21,9.4-21,21c0,4.2,1.2,8.1,3.3,11.4H875z M875,775.8"/>
		<path class="st14" d="M1016.5,775.8c-1.3-2.5-2-5.3-2-8.3c0-9.9,8-17.9,17.9-17.9c0.6,0,1.2,0,1.8,0.1c3.8-9.9,13.4-17,24.7-17
			c10.8,0,20.1,6.5,24.2,15.9c3.7-3.2,8.5-5.1,13.7-5.1c11.6,0,21,9.4,21,21c0,4.2-1.2,8.1-3.3,11.4H1016.5z M1016.5,775.8"/>
		<path class="st1" d="M851.8,557.9h-29.5c-4.5,0-8.2-3.7-8.2-8.2c0-4.5,3.7-8.2,8.2-8.2h29.5c4.5,0,8.2,3.7,8.2,8.2
			C860,554.2,856.3,557.9,851.8,557.9L851.8,557.9z M851.8,557.9"/>
		<path class="st6" d="M1052.9,581.5c-2.7,0-4.9-2.2-4.9-4.9v-9.3c0-2.7,2.2-4.9,4.9-4.9c2.7,0,4.9,2.2,4.9,4.9v9.3
			C1057.8,579.3,1055.6,581.5,1052.9,581.5L1052.9,581.5z M1052.9,581.5"/>
		<path class="st6" d="M1075.4,594.2c-2.7,0-4.9-2.2-4.9-4.9v-9.3c0-2.7,2.2-4.9,4.9-4.9c2.7,0,4.9,2.2,4.9,4.9v9.3
			C1080.3,592,1078.1,594.2,1075.4,594.2L1075.4,594.2z M1075.4,594.2"/>
	</g>
</g>
</svg>
