<?xml version="1.0" encoding="utf-8"?>
<!-- Generator: Adobe Illustrator 22.1.0, SVG Export Plug-In . SVG Version: 6.00 Build 0)  -->
<svg version="1.1" id="Layer_1" xmlns="http://www.w3.org/2000/svg" xmlns:xlink="http://www.w3.org/1999/xlink" x="0px" y="0px"
	 viewBox="0 0 1920 1280" style="enable-background:new 0 0 1920 1280;" xml:space="preserve">
<style type="text/css">
	.st0{fill:#C7EDE6;}
	.st1{fill:#FFFFFF;}
	.st2{fill:#FDFCEF;}
	.st3{fill:#472B29;}
	.st4{fill:#B07676;}
	.st5{fill:#D49C8D;}
	.st6{fill:#C7758D;}
	.st7{fill:#CAB4EF;}
	.st8{fill:#FFDCB6;}
	.st9{fill:#A45775;}
	.st10{fill:#FFE266;}
	.st11{fill:#EF8BBD;}
	.st12{fill:#BE87EF;}
	.st13{fill:#EFAA66;}
	.st14{fill:#71AFC4;}
	.st15{fill:#E068BD;}
	.st16{fill:#8BB6EF;}
	.st17{fill:#EEB6A8;}
	.st18{fill:#A183E2;}
	.st19{fill:#FEF2A8;}
	.st20{fill:#9762E2;}
	.st21{fill:#B3586B;}
	.st22{fill:#6280CC;}
</style>
<g>
	<g>
		<path class="st0" d="M1207,691.2c8.7-16.5,13.6-35.2,13.6-55.1c0-50.6-31.8-93.6-76.4-110.6c0-0.1,0-0.1,0-0.2
			c0-88.6-71.8-160.4-160.4-160.4c-74.7,0-137.4,51.2-155.2,120.4c-11.3-3.7-23.3-5.8-35.8-5.8c-58.8,0-107.1,44.3-113.7,101.2
			c-39.8,8.4-69.6,43.7-69.6,85.9c0,48.5,39.3,87.8,87.8,87.8c1.4,0,2.7-0.1,4-0.2c0,1.3-0.2,2.6-0.2,4
			c0,86.5,70.1,156.6,156.6,156.6c49.2,0,93-22.7,121.7-58.2c16.6,17,39.8,27.6,65.4,27.6c35.5,0,66.3-20.2,81.5-49.8
			c8,2.6,16.6,4,25.5,4c46.4,0,84-37.6,84-84C1235.9,729.2,1224.6,706.6,1207,691.2z"/>
		<path class="st1" d="M689,594.1h-75.7c-2.1,0-3.8-1.7-3.8-3.8s1.7-3.8,3.8-3.8H689c2.1,0,3.8,1.7,3.8,3.8S691.1,594.1,689,594.1z"
			/>
		<path class="st1" d="M712.6,594.1H705c-2.1,0-3.8-1.7-3.8-3.8s1.7-3.8,3.8-3.8h7.6c2.1,0,3.8,1.7,3.8,3.8S714.7,594.1,712.6,594.1
			z"/>
		<path class="st1" d="M750.7,609.4h-68.7c-2.1,0-3.8-1.7-3.8-3.8s1.7-3.8,3.8-3.8h68.7c2.1,0,3.8,1.7,3.8,3.8
			S752.8,609.4,750.7,609.4z"/>
		<path class="st1" d="M666.8,609.4h-7.6c-2.1,0-3.8-1.7-3.8-3.8s1.7-3.8,3.8-3.8h7.6c2.1,0,3.8,1.7,3.8,3.8
			S668.9,609.4,666.8,609.4z"/>
		<path class="st1" d="M643.9,609.4h-15.3c-2.1,0-3.8-1.7-3.8-3.8s1.7-3.8,3.8-3.8h15.3c2.1,0,3.8,1.7,3.8,3.8
			S646,609.4,643.9,609.4z"/>
		<path class="st1" d="M689.7,624.7h-15.3c-2.1,0-3.8-1.7-3.8-3.8s1.7-3.8,3.8-3.8h15.3c2.1,0,3.8,1.7,3.8,3.8
			S691.8,624.7,689.7,624.7z"/>
		<path class="st1" d="M712.6,555.9c-1.4,0-6.3,0-7.6,0c-2.1,0-3.8,1.7-3.8,3.8s1.7,3.8,3.8,3.8c1.4,0,6.3,0,7.6,0
			c2.1,0,3.8-1.7,3.8-3.8S714.7,555.9,712.6,555.9z"/>
		<path class="st1" d="M712.6,571.2c-1.4,0-36.8,0-38.2,0c-2.1,0-3.8,1.7-3.8,3.8s1.7,3.8,3.8,3.8c1.4,0,36.8,0,38.2,0
			c2.1,0,3.8-1.7,3.8-3.8S714.7,571.2,712.6,571.2z"/>
		<path class="st1" d="M750.8,586.5c-1.4,0-21.6,0-22.9,0c-2.1,0-3.8,1.7-3.8,3.8s1.7,3.8,3.8,3.8c1.4,0,21.6,0,22.9,0
			c2.1,0,3.8-1.7,3.8-3.8S752.9,586.5,750.8,586.5z"/>
		<path class="st1" d="M1186.2,754.5h-76.4c-2.1,0-3.8-1.7-3.8-3.8s1.7-3.8,3.8-3.8h76.4c2.1,0,3.8,1.7,3.8,3.8
			S1188.3,754.5,1186.2,754.5z"/>
		<path class="st1" d="M1216.8,754.5h-15.3c-2.1,0-3.8-1.7-3.8-3.8s1.7-3.8,3.8-3.8h15.3c2.1,0,3.8,1.7,3.8,3.8
			S1218.9,754.5,1216.8,754.5z"/>
		<path class="st1" d="M1255,769.8h-76.4c-2.1,0-3.8-1.7-3.8-3.8s1.7-3.8,3.8-3.8h76.4c2.1,0,3.8,1.7,3.8,3.8
			S1257.1,769.8,1255,769.8z"/>
		<path class="st1" d="M1163.3,769.8h-7.6c-2.1,0-3.8-1.7-3.8-3.8s1.7-3.8,3.8-3.8h7.6c2.1,0,3.8,1.7,3.8,3.8
			S1165.4,769.8,1163.3,769.8z"/>
		<path class="st1" d="M1140.2,769.8h-15c-2.1,0-3.8-1.7-3.8-3.8s1.7-3.8,3.8-3.8h15c2.1,0,3.8,1.7,3.8,3.8
			S1142.3,769.8,1140.2,769.8z"/>
		<path class="st1" d="M1209.1,739.2h-38.2c-2.1,0-3.8-1.7-3.8-3.8s1.7-3.8,3.8-3.8h38.2c2.1,0,3.8,1.7,3.8,3.8
			S1211.2,739.2,1209.1,739.2z"/>
		<path class="st1" d="M1186.2,785.1h-15.3c-2.1,0-3.8-1.7-3.8-3.8s1.7-3.8,3.8-3.8h15.3c2.1,0,3.8,1.7,3.8,3.8
			S1188.3,785.1,1186.2,785.1z"/>
		<path class="st2" d="M1097.4,575c0,0-27.8,0-46.8,0s-34.4-15.4-34.4-34.4c0-17.8,13.6-32.3,31-34c-0.2-1.4-0.4-2.7-0.4-4.2
			c0-19,15.4-34.4,34.4-34.4c11,0,20.6,5.2,26.9,13.3c1.1-20.1,17.6-36.2,38-36.2c21.1,0,38.2,17.1,38.2,38.2c0,3.4-0.6,6.6-1.4,9.8
			c4.9-5.9,12.2-9.8,20.5-9.8c13.6,0,24.7,10.2,26.4,23.3c1.4-0.2,2.7-0.4,4.2-0.4c19,0,34.4,15.4,34.4,34.4S1252.9,575,1234,575
			s-72.6,0-72.6,0h-41.1v3.8h-22.9V575z"/>
		<path class="st3" d="M1146.1,441.3c23.2,0,42,18.8,42,42c0,0.1,0,0.2,0,0.4c4.6-2.7,9.9-4.2,15.3-4.2c14,0,26.1,9.6,29.5,23
			c0.4,0,0.7,0,1.1,0c21.1,0,38.2,17.1,38.2,38.2s-17.1,38.2-38.2,38.2h-113.6c-2.1,0-3.8-1.7-3.8-3.8s1.7-3.8,3.8-3.8H1234
			c16.9,0,30.6-13.7,30.6-30.6s-13.7-30.6-30.6-30.6c-0.9,0-1.8,0.1-2.6,0.2l-1.1,0.1c-0.2,0-0.3,0-0.5,0c-1.9,0-3.5-1.4-3.8-3.3
			c-1.5-11.4-11.2-20-22.6-20c-6.8,0-13.2,3.1-17.6,8.4c-0.7,0.9-1.8,1.4-2.9,1.4c-0.6,0-1.2-0.1-1.7-0.4c-1.6-0.8-2.4-2.6-1.9-4.4
			c0.9-3.3,1.3-6.1,1.3-8.8c0-19-15.4-34.4-34.4-34.4c-18.2,0-33.2,14.3-34.2,32.6c-0.1,1.6-1.1,3-2.7,3.4c-0.4,0.1-0.8,0.2-1.2,0.2
			c-1.1,0-2.3-0.5-3-1.5c-5.9-7.5-14.6-11.8-23.9-11.8c-16.9,0-30.6,13.7-30.6,30.6c0,0.9,0.1,1.8,0.2,2.6l0.1,1.1
			c0.1,1-0.2,2-0.8,2.8c-0.6,0.8-1.6,1.3-2.6,1.4c-15.7,1.6-27.5,14.6-27.5,30.2c0,16.9,13.7,30.6,30.6,30.6h46.8
			c2.1,0,3.8,1.7,3.8,3.8s-1.7,3.8-3.8,3.8h-46.8c-21.1,0-38.2-17.1-38.2-38.2c0-18.3,12.9-33.7,30.6-37.3c0-0.3,0-0.6,0-0.9
			c0-21.1,17.1-38.2,38.2-38.2c9,0,17.5,3.2,24.3,8.9C1110.1,454.8,1126.6,441.3,1146.1,441.3L1146.1,441.3z"/>
		<path class="st3" d="M1157.6,494.8c10.7,0,19.9,7.6,22.3,17.9c2.8-1.7,6-2.6,9.3-2.6c9.2,0,16.8,6.9,18,15.8
			c1.6-0.4,3-0.5,4.5-0.5c11.7,0,21.5,9.2,22.3,20.9c0.1,1.1-0.7,2-1.8,2c0,0-0.1,0-0.1,0c-1,0-1.8-0.8-1.9-1.8
			c-0.7-9.7-8.8-17.3-18.5-17.3c-1.7,0-3.6,0.3-5.6,1c-0.2,0.1-0.3,0.1-0.5,0.1c-0.4,0-0.8-0.2-1.2-0.4c-0.5-0.4-0.8-1-0.8-1.6
			c0-7.9-6.4-14.3-14.3-14.3c-3.4,0-6.8,1.3-9.4,3.6c-0.4,0.3-0.8,0.5-1.3,0.5c-0.2,0-0.5,0-0.7-0.1c-0.7-0.3-1.1-0.9-1.2-1.6
			c-0.8-9.9-9.1-17.6-18.9-17.6c-1.6,0-3.2,0.3-5.2,0.8c-0.2,0.1-0.4,0.1-0.5,0.1c-0.8,0-1.6-0.6-1.8-1.4c-0.3-1,0.3-2.1,1.3-2.4
			C1153.6,495.1,1155.6,494.8,1157.6,494.8L1157.6,494.8z"/>
		<path class="st2" d="M658.2,850c0,0-12,0-26.7,0s-26.7-12-26.7-26.7c0-13.6,10.2-24.7,23.3-26.4c-0.2-1.4-0.4-2.7-0.4-4.2
			c0-14.8,12-26.7,26.7-26.7c7.9,0,14.9,3.5,19.8,8.9c2.9-13.8,15.2-24.2,29.9-24.2c16.9,0,30.6,13.7,30.6,30.6
			c0,1.5-0.2,2.9-0.4,4.3c3.3-2.6,7.4-4.3,11.9-4.3c9.4,0,17.1,6.8,18.8,15.7c1.4-0.2,2.7-0.4,4.2-0.4c14.8,0,26.7,12,26.7,26.7
			c0,14.8-12,26.7-26.7,26.7s-57.3,0-57.3,0v3.8h-53.5V850z"/>
		<path class="st3" d="M644.8,815.6c1.1,0,1.9-0.9,1.9-1.9c0-9.3-7.6-16.9-16.9-16.9c-0.3,0.1-5.6,0-9.5,1c-1,0.3-1.6,1.3-1.3,2.3
			c0.3,1,1.3,1.6,2.3,1.3c3.4-0.9,8.4-0.9,8.5-0.9c7.2,0,13.1,5.9,13.1,13.1C642.9,814.8,643.8,815.6,644.8,815.6z"/>
		<circle class="st3" cx="1313.1" cy="877" r="4.6"/>
		<path class="st3" d="M631.4,853.8h26.7c2.1,0,3.8-1.7,3.8-3.8s-1.7-3.8-3.8-3.8h-26.7c-12.6,0-22.9-10.3-22.9-22.9
			c0-11.4,8.6-21.1,20-22.6c1-0.1,1.9-0.7,2.6-1.5s0.9-1.9,0.7-2.9c-0.2-1.2-0.4-2.4-0.4-3.6c0-12.6,10.3-22.9,22.9-22.9
			c6.5,0,12.5,2.7,17,7.6c1,1.1,2.5,1.5,3.8,1.1c1.4-0.4,2.5-1.5,2.8-2.9c2.6-12.3,13.6-21.2,26.1-21.2c14.7,0,26.7,12,26.7,26.7
			c0,1.1-0.2,2.1-0.3,3.2c-0.2,1.6,0.5,3.3,1.8,4.1c1.4,0.8,3,0.9,4.2-0.1c2.8-2.2,6.1-3.4,9.5-3.4c7.4,0,13.7,5.3,15,12.6
			c0.4,2,2.3,3.4,4.3,3.1c1.2-0.2,2.4-0.4,3.6-0.4c12.6,0,22.9,10.3,22.9,22.9c0,12.6-10.3,22.9-22.9,22.9h-57.3
			c-2.1,0-3.8,1.7-3.8,3.8s1.7,3.8,3.8,3.8h57.3c16.9,0,30.6-13.7,30.6-30.6c0-16.9-13.7-30.6-30.6-30.6c-0.5,0-0.9,0-1.3,0
			c-3.2-9.1-11.7-15.3-21.6-15.3c-2.7,0-5.3,0.5-7.7,1.4c-1.3-17.8-16.2-31.9-34.3-31.9c-14,0-26.5,8.6-31.7,21.2
			c-5.2-3.8-11.5-5.9-17.9-5.9c-16.9,0-30.6,13.7-30.6,30.6c0,0.4,0,0.7,0,1.1c-13.3,3.4-22.9,15.5-22.9,29.5
			C600.9,840.1,614.6,853.8,631.4,853.8z"/>
		<path class="st3" d="M1285.5,872.4c1.5,0,7.7,0,9.2,0c2.5,0,4.6,2.1,4.6,4.6s-2.1,4.6-4.6,4.6c-1.5,0-7.7,0-9.2,0
			c-2.5,0-4.6-2.1-4.6-4.6S1283,872.4,1285.5,872.4z"/>
	</g>
	<g>
		<path class="st4" d="M1102.4,819.9H810c-7.1,0-13-5.8-13-13V514.6c0-7.1,5.8-13,13-13h292.3c7.1,0,13,5.8,13,13v292.3
			C1115.3,814,1109.5,819.9,1102.4,819.9L1102.4,819.9z M1102.4,819.9"/>
		<path class="st5" d="M905.7,756.9V501.6H810c-7.1,0-13,5.8-13,13v292.3c0,7.1,5.8,13,13,13h292.3c7.1,0,13-5.8,13-13v-50H905.7z
			 M905.7,756.9"/>
		<path class="st6" d="M867.5,501.6c10,0,18.2,8.1,18.2,18.2v184.6c0,10-8.1,18.2-18.2,18.2h-52.3c-10,0-18.2-8.1-18.2-18.2v52.4
			h108.6V501.6H867.5z M867.5,501.6"/>
		<rect x="905.7" y="538.8" class="st7" width="209.6" height="24"/>
		<path class="st8" d="M875.8,671.6c-5.4,0-9.9-4.4-9.9-9.9v-19.4c0-5.4,4.4-9.9,9.9-9.9c5.4,0,9.9,4.4,9.9,9.9v19.4
			C885.6,667.2,881.2,671.6,875.8,671.6L875.8,671.6z M875.8,671.6"/>
		<path class="st9" d="M1115.3,756.9V514.6c0-7.1-5.8-13-13-13h-76.1c4.4,0,8,4.2,8,9.3V664c0,13.1-11,23.9-24.7,23.9H905.6v69
			H1115.3z M1115.3,756.9"/>
		<path class="st10" d="M1002.5,579.2c0,0,39.4-23.9,41.5-25.5c4.9-3.9,5.7-11,1.8-16c-3.9-4.9-11-5.7-16-1.8
			c-3.5,2.8-8.6,2.2-11.4-1.3c-2.8-3.5-2.2-8.6,1.3-11.4c11.9-9.5,29.3-7.5,38.8,4.4c9.5,11.9,7.5,29.3-4.4,38.8
			c-0.1,0.1-0.2,0.2-0.3,0.2l17.3,12.6c3.7,2.7,4.5,7.7,1.8,11.4c-1.6,2.2-4.1,3.3-6.6,3.3c-1.6,0-3.3-0.5-4.8-1.5l-21.7-17.4
			l-27.9,17.4c-3.7,2.7-8.7,1.9-11.4-1.8C998,586.9,998.8,581.9,1002.5,579.2L1002.5,579.2z M1002.5,579.2"/>
		<path class="st10" d="M970.4,579.2c0,0,39.4-23.9,41.5-25.5c4.9-3.9,5.7-11,1.8-16c-3.9-4.9-11-5.7-16-1.8
			c-3.5,2.8-8.6,2.2-11.4-1.3c-2.8-3.5-2.2-8.6,1.3-11.4c11.9-9.5,29.3-7.5,38.8,4.4c9.5,11.9,7.5,29.3-4.4,38.8
			c-0.1,0.1-0.2,0.2-0.3,0.2l17.3,12.6c3.7,2.7,4.5,7.7,1.8,11.4c-1.6,2.2-4.1,3.3-6.6,3.3c-1.6,0-3.3-0.5-4.8-1.5l-21.7-17.4
			l-27.9,17.4c-3.7,2.7-8.7,1.9-11.4-1.8C965.9,586.9,966.7,581.9,970.4,579.2L970.4,579.2z M970.4,579.2"/>
		<path class="st11" d="M936.3,598.4l31.4-22c6.2-3.3,12.8-6.5,19.9-6.5h2.8c-0.4,1.5-0.7,3.2-0.7,4.9c0,10.1,8.1,18.2,18.2,18.2
			c10.1,0,18.2-8.1,18.2-18.2c0-1.7-0.2-3.4-0.7-4.9h2.9c7,0,14.7,3,20.9,6.7l29.9,21.6c2,1.9,2.2,5,0.3,7.1l-17.1,20.4
			c-1.9,2-5,2.2-7.1,0.3l-4.8-4.4v66.3h-85.3V622l-4.2,4c-2,1.9-5.2,1.8-7.1-0.2l-17.8-20.4C934.2,603.4,934.3,600.2,936.3,598.4
			L936.3,598.4z M936.3,598.4"/>
		<rect x="1034.2" y="538.8" class="st12" width="81.1" height="24"/>
		<path class="st13" d="M1043.9,553.8c-0.6,0.5-4.5,2.9-9.7,6.2v18.7l5.8-3.6l21.7,17.4c1.5,1.1,3.1,1.5,4.8,1.5
			c2.5,0,5-1.1,6.6-3.3c2.7-3.7,1.9-8.7-1.8-11.4l-17.3-12.6c0.1-0.1,0.2-0.2,0.3-0.2c11.9-9.5,13.9-26.9,4.4-38.8
			c-6-7.5-15.2-11.1-24.3-10.2V534c4.1-1,8.7,0.4,11.5,4C1049.6,542.6,1048.8,549.9,1043.9,553.8L1043.9,553.8z M1043.9,553.8"/>
		<path class="st14" d="M1111.4,598.1l-29.9-21.6c-6.2-3.7-14-6.7-20.9-6.7h-2.9c0.4,1.5,0.6,3.2,0.6,4.9c0,10.1-8.1,18.2-18.2,18.2
			c-1.3,0-2.6-0.2-3.8-0.4v95.2h46.5v-66.3l4.8,4.4c2,1.9,5.2,1.7,7.1-0.3l17.1-20.4C1113.5,603.1,1113.4,600,1111.4,598.1
			L1111.4,598.1z M1111.4,598.1"/>
		<path class="st15" d="M1050.5,621.5l4.8,4.4c2,1.9,5.2,1.7,7.1-0.3l17.1-20.4c1.9-2,1.7-5.2-0.3-7.1l-29.9-21.6
			c-4.5-2.6-9.8-4.9-15.1-6v93.5c0,13.1-11,23.9-24.7,23.9h-44.3h85.3V621.5z M1050.5,621.5"/>
		<path class="st10" d="M929.4,579.2c0,0,39.4-23.9,41.5-25.5c4.9-3.9,5.7-11,1.8-16c-3.9-4.9-11-5.7-16-1.8
			c-3.5,2.8-8.6,2.2-11.4-1.3c-2.8-3.5-2.2-8.6,1.3-11.4c11.9-9.5,29.3-7.5,38.8,4.4c9.5,11.9,7.5,29.3-4.4,38.8
			c-0.1,0.1-0.2,0.2-0.3,0.2l17.3,12.6c3.7,2.7,4.5,7.7,1.8,11.4c-1.6,2.2-4.1,3.3-6.6,3.3c-1.6,0-3.3-0.5-4.8-1.5L966.6,575
			l-27.9,17.4c-3.7,2.7-8.7,1.9-11.4-1.8C925,586.9,925.8,581.9,929.4,579.2L929.4,579.2z M929.4,579.2"/>
		<path class="st16" d="M895.4,598.4l31.4-22c6.2-3.3,12.8-6.5,19.9-6.5h2.8c-0.4,1.5-0.6,3.2-0.6,4.9c0,10.1,8.1,18.2,18.2,18.2
			c10.1,0,18.2-8.1,18.2-18.2c0-1.7-0.2-3.4-0.6-4.9h2.9c7,0,14.7,3,20.9,6.7l29.9,21.6c2,1.9,2.2,5,0.3,7.1l-17.1,20.4
			c-1.9,2-5,2.2-7.1,0.3l-4.8-4.4v66.3h-85.4V622l-4.2,4c-2,1.9-5.2,1.8-7.1-0.2l-17.8-20.4C893.3,603.4,893.4,600.2,895.4,598.4
			L895.4,598.4z M895.4,598.4"/>
		<path class="st8" d="M895.3,786.4c0,5.4-4.4,9.9-9.9,9.9H866c-5.4,0-9.9-4.4-9.9-9.9c0-5.4,4.4-9.9,9.9-9.9h19.4
			C890.9,776.5,895.3,780.9,895.3,786.4L895.3,786.4z M895.3,786.4"/>
		<path class="st8" d="M1056.4,786.4c0,5.4-4.4,9.9-9.9,9.9h-19.4c-5.4,0-9.9-4.4-9.9-9.9c0-5.4,4.4-9.9,9.9-9.9h19.4
			C1051.9,776.5,1056.4,780.9,1056.4,786.4L1056.4,786.4z M1056.4,786.4"/>
		<path class="st6" d="M1039.7,756.9v31.2c0,4.5-4.5,8.1-9.9,8.1H806.9c-5.4,0-9.9-3.7-9.9-8.1v18.7c0,7.1,5.8,13,13,13h292.3
			c7.1,0,13-5.8,13-13v-50H1039.7z M1039.7,756.9"/>
		<path class="st17" d="M1046.5,776.5h-6.8v11.6c0,4.5-4.5,8.1-9.9,8.1h16.7c5.4,0,9.9-4.4,9.9-9.9
			C1056.4,780.9,1051.9,776.5,1046.5,776.5L1046.5,776.5z M1046.5,776.5"/>
		<path class="st18" d="M1082.8,756.9h-62.2c-6.3,0-11.3-5-11.3-11.3c0-6.2,5-11.3,11.3-11.3h62.2c6.2,0,11.3,5,11.3,11.3
			C1094.1,751.9,1089,756.9,1082.8,756.9L1082.8,756.9z M1082.8,756.9"/>
		<path class="st19" d="M1082.8,734.4h-62.2c-6.3,0-11.3-5-11.3-11.3c0-6.3,5-11.3,11.3-11.3h62.2c6.2,0,11.3,5,11.3,11.3
			C1094.1,729.2,1089,734.4,1082.8,734.4L1082.8,734.4z M1082.8,734.4"/>
		<path class="st20" d="M1082.8,734.4c2.3,0,4.4-0.7,6.1-1.8h-29.1c-1.1,1.2-2.4,1.9-3.8,1.9c4,0,7.4,1.2,7.4,5.5
			c0,4.3-2.8,5.6-6.8,5.6H1017c-3.2,0-5.8-1.1-6.7-4.7c-0.9,1.9-1,3.7-1,4.7c0,6.3,5,11.3,11.3,11.3h62.2c6.2,0,11.3-5,11.3-11.3
			C1094.1,739.4,1089,734.4,1082.8,734.4L1082.8,734.4z M1082.8,734.4"/>
		<path class="st17" d="M1063.4,723.1c0,4.6-2.9,10.3-6.4,11.3h25.8c6.2,0,11.3-5,11.3-11.3c0-6.3-5-11.3-11.3-11.3H1056
			C1059.8,711.7,1063.4,717.9,1063.4,723.1L1063.4,723.1z M1063.4,723.1"/>
		<path class="st21" d="M956.2,822.7c-4.5,0-8.1-3.7-8.1-8.1v-56.3c0-4.5,3.7-8.1,8.1-8.1c4.5,0,8.1,3.7,8.1,8.1v56.3
			C964.3,819.1,960.6,822.7,956.2,822.7L956.2,822.7z M956.2,822.7"/>
		<path class="st1" d="M821.6,603.6c-4.5,0-8.1-3.7-8.1-8.1v-25.6c0-4.5,3.7-8.1,8.1-8.1s8.1,3.7,8.1,8.1v25.6
			C829.7,600,826,603.6,821.6,603.6L821.6,603.6z M821.6,603.6"/>
		<path class="st1" d="M821.6,551.8c-4.5,0-8.1-3.7-8.1-8.1v-7.1c0-4.5,3.7-8.1,8.1-8.1s8.1,3.7,8.1,8.1v7.1
			C829.7,548.2,826,551.8,821.6,551.8L821.6,551.8z M821.6,551.8"/>
		<path class="st1" d="M947.6,658.7c-4.5,0-8.1-3.7-8.1-8.1v-18.1c0-4.5,3.7-8.1,8.1-8.1c4.5,0,8.1,3.7,8.1,8.1v18.1
			C955.7,655,952,658.7,947.6,658.7L947.6,658.7z M947.6,658.7"/>
		<path class="st22" d="M971.5,672.2c-2.7,0-4.9-2.2-4.9-4.9v-9.2c0-2.7,2.2-4.9,4.9-4.9c2.7,0,4.9,2.2,4.9,4.9v9.2
			C976.4,670,974.3,672.2,971.5,672.2L971.5,672.2z M971.5,672.2"/>
		<path class="st22" d="M985.5,645.2c-2.7,0-4.9-2.2-4.9-4.9v-9.3c0-2.7,2.2-4.9,4.9-4.9c2.7,0,4.9,2.2,4.9,4.9v9.3
			C990.4,643,988.2,645.2,985.5,645.2L985.5,645.2z M985.5,645.2"/>
	</g>
</g>
</svg>
