<?xml version="1.0" encoding="iso-8859-1"?>
<!-- Generator: Adobe Illustrator 19.0.0, SVG Export Plug-In . SVG Version: 6.00 Build 0)  -->
<svg version="1.1" id="Layer_1" xmlns="http://www.w3.org/2000/svg" xmlns:xlink="http://www.w3.org/1999/xlink" x="0px" y="0px"
	 viewBox="0 0 512 512" style="enable-background:new 0 0 512 512;" xml:space="preserve">
<rect x="8.403" y="153.173" style="fill:#FFDB56;" width="106.63" height="205.665"/>
<rect x="81.421" y="153.173" style="fill:#FBA806;" width="33.613" height="205.665"/>
<rect x="202.684" y="204.589" style="fill:#F77935;" width="106.631" height="205.665"/>
<rect x="275.702" y="204.589" style="fill:#D9510D;" width="33.613" height="205.665"/>
<rect x="396.965" y="108.177" style="fill:#894BA2;" width="106.63" height="205.664"/>
<rect x="469.983" y="108.177" style="fill:#763794;" width="33.613" height="205.664"/>
<path d="M115.038,144.764H68.736V51.93c0-4.641-3.761-8.403-8.403-8.403s-8.403,3.762-8.403,8.403v92.834H8.403
	c-4.642,0-8.403,3.762-8.403,8.403v32.144c0,4.641,3.761,8.403,8.403,8.403s8.403-3.762,8.403-8.403V161.57h89.829v188.86H16.806
	V219.557c0-4.641-3.761-8.403-8.403-8.403S0,214.916,0,219.557v139.276c0,4.641,3.761,8.403,8.403,8.403h43.526v92.834
	c0,4.641,3.761,8.403,8.403,8.403s8.403-3.762,8.403-8.403v-92.834h46.303c4.642,0,8.403-3.762,8.403-8.403V153.167
	C123.441,148.525,119.679,144.764,115.038,144.764z"/>
<path d="M309.317,196.182h-46.303V51.93c0-4.641-3.761-8.403-8.403-8.403c-4.642,0-8.403,3.762-8.403,8.403v144.252h-43.526
	c-4.642,0-8.403,3.762-8.403,8.403v109.257c0,4.641,3.761,8.403,8.403,8.403c4.642,0,8.403-3.762,8.403-8.403V212.989h89.829
	v188.859h-89.829v-53.76c0-4.641-3.761-8.403-8.403-8.403c-4.642,0-8.403,3.762-8.403,8.403v62.163c0,4.641,3.761,8.403,8.403,8.403
	h43.526v41.415c0,4.641,3.761,8.403,8.403,8.403c4.642,0,8.403-3.762,8.403-8.403v-41.415h46.303c4.642,0,8.403-3.762,8.403-8.403
	V204.586C317.72,199.945,313.959,196.182,309.317,196.182z"/>
<path d="M503.597,99.772h-46.301V51.93c0-4.641-3.761-8.403-8.403-8.403c-4.642,0-8.403,3.762-8.403,8.403v47.843h-43.527
	c-4.642,0-8.403,3.762-8.403,8.403v60.328c0,4.641,3.761,8.403,8.403,8.403s8.403-3.762,8.403-8.403V116.58h89.829v188.858h-89.829
	V202.749c0-4.641-3.761-8.403-8.403-8.403s-8.403,3.762-8.403,8.403v111.092c0,4.641,3.761,8.403,8.403,8.403h43.527V460.07
	c0,4.641,3.761,8.403,8.403,8.403c4.642,0,8.403-3.762,8.403-8.403V322.244h46.301c4.642,0,8.403-3.762,8.403-8.403V108.176
	C512,103.535,508.238,99.772,503.597,99.772z"/>
<g>
</g>
<g>
</g>
<g>
</g>
<g>
</g>
<g>
</g>
<g>
</g>
<g>
</g>
<g>
</g>
<g>
</g>
<g>
</g>
<g>
</g>
<g>
</g>
<g>
</g>
<g>
</g>
<g>
</g>
</svg>
